<svg xmlns="http://www.w3.org/2000/svg" width="40" height="40" fill="none" viewBox="0 0 40 40"><path fill="url(#paint0_linear_5_1124)" fill-rule="evenodd" d="M20.2587 36.404C20.0801 36.4174 19.9008 36.4174 19.7222 36.404C18.9528 36.3464 18.3293 35.9992 17.7596 35.5535C17.2238 35.1342 16.631 34.5414 15.9377 33.8481L15.8892 33.7995C15.1913 33.1017 15.0334 32.9673 14.8651 32.8901C14.8357 32.8766 14.8058 32.8642 14.7755 32.853C14.6019 32.7886 14.3952 32.7719 13.4083 32.7719L13.1654 32.7719C12.0788 32.772 11.1501 32.772 10.4079 32.6723C9.61548 32.5657 8.86648 32.3269 8.26026 31.7206C7.65404 31.1144 7.4152 30.3654 7.30865 29.573C7.20887 28.8308 7.20892 27.9021 7.20898 26.8155V26.5726C7.20898 25.5857 7.19234 25.379 7.12793 25.2054C7.11667 25.1751 7.10428 25.1452 7.09079 25.1158C7.01359 24.9475 6.87921 24.7896 6.18138 24.0917L6.1328 24.0432C5.43947 23.3499 4.84665 22.7571 4.42743 22.2213C3.9817 21.6516 3.63454 21.0281 3.57688 20.2587C3.5635 20.0801 3.5635 19.9008 3.57688 19.7222C3.63454 18.9528 3.98171 18.3293 4.42743 17.7596C4.84665 17.2238 5.43947 16.631 6.1328 15.9377L6.18138 15.8892C6.87921 15.1913 7.01359 15.0334 7.09079 14.8651C7.10428 14.8357 7.11667 14.8058 7.12793 14.7755C7.19234 14.6019 7.20898 14.3952 7.20898 13.4083V13.1654C7.20892 12.0788 7.20887 11.1501 7.30865 10.4079C7.4152 9.61548 7.65404 8.86648 8.26026 8.26026C8.86648 7.65404 9.61548 7.4152 10.4079 7.30865C11.1501 7.20887 12.0788 7.20892 13.1654 7.20898H13.4083C14.3952 7.20898 14.6019 7.19234 14.7755 7.12793C14.8058 7.11667 14.8357 7.10428 14.8651 7.09079C15.0334 7.01359 15.1913 6.87921 15.8892 6.18138L15.9377 6.1328C16.631 5.43947 17.2238 4.84665 17.7596 4.42743C18.3293 3.9817 18.9528 3.63454 19.7222 3.57688C19.9008 3.5635 20.0801 3.5635 20.2587 3.57688C21.0281 3.63454 21.6516 3.98171 22.2213 4.42743C22.7571 4.84665 23.3499 5.43947 24.0432 6.1328L24.0917 6.18138C24.7896 6.87921 24.9475 7.01359 25.1158 7.09079C25.1452 7.10428 25.1751 7.11667 25.2054 7.12793C25.379 7.19234 25.5857 7.20898 26.5726 7.20898H26.8155C27.9021 7.20892 28.8308 7.20887 29.573 7.30865C30.3654 7.4152 31.1144 7.65404 31.7206 8.26026C32.3269 8.86648 32.5657 9.61548 32.6723 10.4079C32.772 11.1501 32.772 12.0788 32.7719 13.1654L32.7719 13.4083C32.7719 14.3952 32.7886 14.6019 32.853 14.7755C32.8642 14.8058 32.8766 14.8357 32.8901 14.8651C32.9673 15.0334 33.1017 15.1913 33.7995 15.8892L33.8481 15.9377C34.5414 16.631 35.1342 17.2238 35.5535 17.7596C35.9992 18.3293 36.3464 18.9528 36.404 19.7222C36.4174 19.9008 36.4174 20.0801 36.404 20.2587C36.3464 21.0281 35.9992 21.6516 35.5535 22.2213C35.1342 22.7571 34.5414 23.3499 33.8481 24.0432L33.7995 24.0917C33.1017 24.7896 32.9673 24.9475 32.8901 25.1158C32.8766 25.1452 32.8642 25.1751 32.853 25.2054C32.7886 25.379 32.7719 25.5857 32.7719 26.5726L32.7719 26.8155C32.772 27.9021 32.772 28.8308 32.6723 29.573C32.5657 30.3654 32.3269 31.1144 31.7206 31.7206C31.1144 32.3269 30.3654 32.5657 29.573 32.6723C28.8308 32.772 27.9021 32.772 26.8155 32.7719L26.5726 32.7719C25.5857 32.7719 25.379 32.7886 25.2054 32.853C25.1751 32.8642 25.1452 32.8766 25.1158 32.8901C24.9475 32.9673 24.7896 33.1017 24.0917 33.7995L24.0432 33.8481C23.3499 34.5414 22.7571 35.1342 22.2213 35.5535C21.6516 35.9992 21.0281 36.3464 20.2587 36.404ZM19.8935 34.1188C19.958 34.1236 20.0229 34.1236 20.0874 34.1188C20.2221 34.1087 20.4181 34.0546 20.8092 33.7486C21.2217 33.4258 21.7159 32.9344 22.4713 32.1791C22.5068 32.1436 22.5419 32.1084 22.5767 32.0735C23.1099 31.539 23.5695 31.0781 24.1602 30.8072C24.2416 30.7698 24.3243 30.7356 24.4082 30.7044C25.0175 30.4784 25.6684 30.4792 26.4234 30.4801C26.4727 30.4802 26.5224 30.4803 26.5726 30.4803H26.7391C27.9234 30.4803 28.6963 30.4778 29.2676 30.401C29.8059 30.3286 29.9907 30.2096 30.1002 30.1002C30.2096 29.9907 30.3286 29.8059 30.401 29.2676C30.4778 28.6963 30.4803 27.9234 30.4803 26.7391V26.5726C30.4803 26.5224 30.4802 26.4727 30.4801 26.4234C30.4792 25.6684 30.4784 25.0175 30.7044 24.4082C30.7356 24.3243 30.7698 24.2416 30.8072 24.1602C31.0781 23.5695 31.539 23.1099 32.0735 22.5767C32.1084 22.5419 32.1436 22.5068 32.1791 22.4713C32.9344 21.7159 33.4258 21.2217 33.7486 20.8092C34.0546 20.4181 34.1087 20.2221 34.1188 20.0874C34.1236 20.0229 34.1236 19.958 34.1188 19.8935C34.1087 19.7588 34.0546 19.5628 33.7486 19.1717C33.4258 18.7592 32.9344 18.265 32.1791 17.5096C32.1436 17.4741 32.1084 17.439 32.0735 17.4042C31.539 16.871 31.0781 16.4114 30.8072 15.8207C30.7698 15.7393 30.7356 15.6566 30.7044 15.5727C30.4784 14.9634 30.4792 14.3125 30.4801 13.5575C30.4802 13.5082 30.4803 13.4585 30.4803 13.4083V13.2418C30.4803 12.0575 30.4778 11.2846 30.401 10.7133C30.3286 10.175 30.2096 9.99017 30.1002 9.88071C29.9907 9.77126 29.806 9.65226 29.2676 9.57988C28.6963 9.50307 27.9234 9.50064 26.7391 9.50064H26.5726C26.5224 9.50064 26.4727 9.50071 26.4234 9.50077C25.6684 9.50172 25.0175 9.50253 24.4082 9.27646C24.3243 9.24533 24.2416 9.21107 24.1602 9.17374C23.5695 8.90277 23.1099 8.44194 22.5767 7.90739C22.5419 7.87251 22.5068 7.83731 22.4713 7.80184C21.7159 7.04649 21.2217 6.55507 20.8092 6.23233C20.4181 5.92633 20.2221 5.87223 20.0874 5.86214C20.0229 5.8573 19.958 5.8573 19.8935 5.86214C19.7588 5.87223 19.5628 5.92633 19.1717 6.23232C18.7592 6.55506 18.265 7.04648 17.5096 7.80183C17.4741 7.83731 17.439 7.87251 17.4042 7.90739C16.871 8.44193 16.4114 8.90277 15.8207 9.17374C15.7393 9.21106 15.6566 9.24533 15.5727 9.27646C14.9634 9.50253 14.3125 9.50172 13.5575 9.50077C13.5082 9.50071 13.4585 9.50064 13.4083 9.50064H13.2418C12.0575 9.50064 11.2846 9.50307 10.7133 9.57988C10.175 9.65226 9.99017 9.77126 9.88071 9.88071C9.77126 9.99017 9.65226 10.175 9.57988 10.7133C9.50307 11.2846 9.50064 12.0575 9.50064 13.2418V13.4083C9.50064 13.4585 9.50071 13.5082 9.50077 13.5575C9.50172 14.3125 9.50253 14.9634 9.27646 15.5727C9.24533 15.6566 9.21106 15.7393 9.17374 15.8207C8.90277 16.4114 8.44194 16.871 7.90739 17.4042C7.87251 17.439 7.83731 17.4741 7.80184 17.5096C7.04649 18.265 6.55507 18.7592 6.23233 19.1717C5.92633 19.5628 5.87223 19.7588 5.86214 19.8935C5.8573 19.958 5.8573 20.0229 5.86214 20.0874C5.87223 20.2221 5.92633 20.4181 6.23232 20.8092C6.55506 21.2217 7.04648 21.7159 7.80183 22.4713C7.83731 22.5068 7.87251 22.5419 7.90739 22.5767C8.44194 23.1099 8.90277 23.5695 9.17374 24.1602C9.21107 24.2416 9.24533 24.3243 9.27646 24.4082C9.50253 25.0175 9.50172 25.6684 9.50077 26.4234C9.50071 26.4727 9.50064 26.5224 9.50064 26.5726V26.7391C9.50064 27.9234 9.50307 28.6963 9.57988 29.2676C9.65226 29.806 9.77126 29.9907 9.88071 30.1002C9.99017 30.2096 10.175 30.3286 10.7133 30.401C11.2846 30.4778 12.0575 30.4803 13.2418 30.4803H13.4083C13.4585 30.4803 13.5082 30.4802 13.5575 30.4801C14.3125 30.4792 14.9634 30.4784 15.5727 30.7044C15.6566 30.7356 15.7393 30.7698 15.8207 30.8072C16.4114 31.0781 16.871 31.539 17.4042 32.0735C17.439 32.1084 17.4741 32.1436 17.5096 32.1791C18.265 32.9344 18.7592 33.4258 19.1717 33.7486C19.5628 34.0546 19.7588 34.1087 19.8935 34.1188Z" clip-rule="evenodd"/><path fill="url(#paint1_linear_5_1124)" fill-rule="evenodd" d="M14.5882 25.3753C14.1407 24.9279 14.1407 24.2024 14.5882 23.7549L23.7549 14.5882C24.2024 14.1407 24.9279 14.1407 25.3753 14.5882C25.8228 15.0357 25.8228 15.7612 25.3753 16.2087L16.2087 25.3753C15.7612 25.8228 15.0357 25.8228 14.5882 25.3753Z" clip-rule="evenodd"/><path fill="url(#paint2_linear_5_1124)" fill-rule="evenodd" d="M13.875 15.4028C13.875 14.559 14.559 13.875 15.4028 13.875H15.4192C16.263 13.875 16.947 14.559 16.947 15.4028C16.947 16.2465 16.263 16.9306 15.4192 16.9306H15.4028C14.559 16.9306 13.875 16.2465 13.875 15.4028ZM23.0252 24.5694C23.0252 23.7257 23.7092 23.0417 24.553 23.0417H24.5694C25.4132 23.0417 26.0972 23.7257 26.0972 24.5694C26.0972 25.4132 25.4132 26.0972 24.5694 26.0972H24.553C23.7092 26.0972 23.0252 25.4132 23.0252 24.5694Z" clip-rule="evenodd"/><defs><linearGradient id="paint0_linear_5_1124" x1="19.991" x2="19.991" y1="36.414" y2="3.567" gradientUnits="userSpaceOnUse"><stop stop-color="#C1842D"/><stop offset="1" stop-color="#ECC974"/></linearGradient><linearGradient id="paint1_linear_5_1124" x1="19.982" x2="19.982" y1="25.711" y2="14.253" gradientUnits="userSpaceOnUse"><stop stop-color="#C1842D"/><stop offset="1" stop-color="#ECC974"/></linearGradient><linearGradient id="paint2_linear_5_1124" x1="19.986" x2="19.986" y1="13.875" y2="26.097" gradientUnits="userSpaceOnUse"><stop stop-color="#C1842D"/><stop offset="1" stop-color="#ECC974"/></linearGradient></defs></svg>