<svg width="40" height="40" viewBox="0 0 40 40" fill="none" xmlns="http://www.w3.org/2000/svg">
    <path fill-rule="evenodd" clip-rule="evenodd"
        d="M27.6233 27.2682C26.5686 27.2682 25.7135 28.1232 25.7135 29.178C25.7135 30.2327 26.5686 31.0877 27.6233 31.0877C28.678 31.0877 29.533 30.2327 29.533 29.178C29.533 28.1232 28.678 27.2682 27.6233 27.2682ZM23.4219 29.178C23.4219 26.8576 25.3029 24.9766 27.6233 24.9766C29.9436 24.9766 31.8247 26.8576 31.8247 29.178C31.8247 31.4983 29.9436 33.3793 27.6233 33.3793C25.3029 33.3793 23.4219 31.4983 23.4219 29.178Z"
        fill="url(#paint0_linear_5_1106)" />
    <path fill-rule="evenodd" clip-rule="evenodd"
        d="M12.3498 27.2682C11.2951 27.2682 10.4401 28.1232 10.4401 29.178C10.4401 30.2327 11.2951 31.0877 12.3498 31.0877C13.4045 31.0877 14.2595 30.2327 14.2595 29.178C14.2595 28.1232 13.4045 27.2682 12.3498 27.2682ZM8.14844 29.178C8.14844 26.8576 10.0295 24.9766 12.3498 24.9766C14.6702 24.9766 16.5512 26.8576 16.5512 29.178C16.5512 31.4983 14.6702 33.3793 12.3498 33.3793C10.0295 33.3793 8.14844 31.4983 8.14844 29.178Z"
        fill="url(#paint1_linear_5_1106)" />
    <path fill-rule="evenodd" clip-rule="evenodd"
        d="M20.2845 9.10064C19.8102 8.94654 19.1842 8.9324 17.3889 8.9324H4.70833C4.07551 8.9324 3.5625 8.41939 3.5625 7.78657C3.5625 7.15374 4.07551 6.64073 4.70833 6.64073H17.3889C17.4607 6.64073 17.5315 6.64071 17.6013 6.64068C19.1015 6.64009 20.1264 6.63968 20.9926 6.92114C22.7368 7.48786 24.1043 8.85531 24.671 10.5995C24.9524 11.4657 24.952 12.4906 24.9514 13.9909C24.9514 14.0606 24.9514 14.1314 24.9514 14.2032C24.9514 15.4299 24.9655 15.7714 25.0449 16.0156C25.2338 16.597 25.6896 17.0528 26.271 17.2417C26.5151 17.321 26.8567 17.3352 28.0833 17.3352H35.2639C35.8967 17.3352 36.4097 17.8482 36.4097 18.481V21.6185C36.4098 23.3493 36.4098 24.7636 36.2597 25.8802C36.1027 27.0474 35.7631 28.0593 34.9554 28.867C33.8847 29.9377 32.4455 30.1926 30.7376 30.2778C30.1056 30.3093 29.5677 29.8225 29.5362 29.1904C29.5046 28.5584 29.9915 28.0205 30.6235 27.989C32.2667 27.907 32.9181 27.6634 33.335 27.2465C33.6459 26.9356 33.8657 26.4879 33.9884 25.5749C34.1156 24.6289 34.1181 23.3695 34.1181 21.5366V19.6268H28.0833C28.0228 19.6268 27.9631 19.6269 27.9042 19.6269C26.9435 19.6277 26.2001 19.6283 25.5628 19.4212C24.2837 19.0056 23.2809 18.0028 22.8654 16.7238C22.6583 16.0865 22.6589 15.3431 22.6596 14.3824C22.6597 14.3235 22.6597 14.2638 22.6597 14.2032C22.6597 12.4079 22.6456 11.7819 22.4915 11.3077C22.1514 10.2611 21.331 9.44067 20.2845 9.10064ZM4.69338 23.4477C5.32542 23.4162 5.86333 23.903 5.89484 24.5351C5.97674 26.1782 6.22035 26.8296 6.63725 27.2465C7.05415 27.6634 7.70554 27.907 9.34871 27.989C9.98075 28.0205 10.4676 28.5584 10.4361 29.1904C10.4046 29.8225 9.86666 30.3093 9.23462 30.2778C7.52669 30.1926 6.08755 29.9377 5.0168 28.867C3.94604 27.7962 3.69115 26.3571 3.60601 24.6492C3.57451 24.0171 4.06134 23.4792 4.69338 23.4477ZM14.2569 29.1755C14.2569 28.5426 14.77 28.0296 15.4028 28.0296H24.5694C25.2023 28.0296 25.7153 28.5426 25.7153 29.1755C25.7153 29.8083 25.2023 30.3213 24.5694 30.3213H15.4028C14.77 30.3213 14.2569 29.8083 14.2569 29.1755Z"
        fill="url(#paint2_linear_5_1106)" />
    <path fill-rule="evenodd" clip-rule="evenodd"
        d="M3.5625 13.8958C3.5625 13.263 4.07551 12.75 4.70833 12.75H13.875C14.5078 12.75 15.0208 13.263 15.0208 13.8958C15.0208 14.5287 14.5078 15.0417 13.875 15.0417H4.70833C4.07551 15.0417 3.5625 14.5287 3.5625 13.8958Z"
        fill="url(#paint3_linear_5_1106)" />
    <path fill-rule="evenodd" clip-rule="evenodd"
        d="M3.5625 18.474C3.5625 17.8411 4.07551 17.3281 4.70833 17.3281H10.8194C11.4523 17.3281 11.9653 17.8411 11.9653 18.474C11.9653 19.1068 11.4523 19.6198 10.8194 19.6198H4.70833C4.07551 19.6198 3.5625 19.1068 3.5625 18.474Z"
        fill="url(#paint4_linear_5_1106)" />
    <path fill-rule="evenodd" clip-rule="evenodd"
        d="M29.0917 12.0565C28.4935 11.9961 27.7269 11.9948 26.5923 11.9948H23.8099C23.1771 11.9948 22.6641 11.4818 22.6641 10.849C22.6641 10.2161 23.1771 9.70313 23.8099 9.70313L26.6491 9.70313C27.7125 9.7031 28.5951 9.70308 29.3219 9.77647C30.0873 9.85377 30.7728 10.0192 31.4198 10.4056C32.0668 10.7921 32.5374 11.3172 32.9683 11.9545C33.3775 12.5596 33.7959 13.3367 34.3001 14.273L36.2771 17.9446C36.5771 18.5018 36.3687 19.1967 35.8115 19.4967C35.2543 19.7967 34.5594 19.5883 34.2594 19.0311L32.3093 15.4095C31.7713 14.4105 31.4068 13.7362 31.07 13.2382C30.7477 12.7615 30.5024 12.527 30.2446 12.3731C29.9869 12.2191 29.6641 12.1143 29.0917 12.0565Z"
        fill="url(#paint5_linear_5_1106)" />
    <defs>
        <linearGradient id="paint0_linear_5_1106" x1="27.6233" y1="24.9766" x2="27.6233"
            y2="33.3793" gradientUnits="userSpaceOnUse">
            <stop stop-color="#C1842D" />
            <stop offset="1" stop-color="#ECC974" />
        </linearGradient>
        <linearGradient id="paint1_linear_5_1106" x1="12.3498" y1="24.9766" x2="12.3498"
            y2="33.3793" gradientUnits="userSpaceOnUse">
            <stop stop-color="#C1842D" />
            <stop offset="1" stop-color="#ECC974" />
        </linearGradient>
        <linearGradient id="paint2_linear_5_1106" x1="19.9861" y1="6.64062" x2="19.9861"
            y2="30.3213" gradientUnits="userSpaceOnUse">
            <stop stop-color="#C1842D" />
            <stop offset="1" stop-color="#ECC974" />
        </linearGradient>
        <linearGradient id="paint3_linear_5_1106" x1="9.29167" y1="12.75" x2="9.29167" y2="15.0417"
            gradientUnits="userSpaceOnUse">
            <stop stop-color="#C1842D" />
            <stop offset="1" stop-color="#ECC974" />
        </linearGradient>
        <linearGradient id="paint4_linear_5_1106" x1="7.76389" y1="17.3281" x2="7.76389"
            y2="19.6198" gradientUnits="userSpaceOnUse">
            <stop stop-color="#C1842D" />
            <stop offset="1" stop-color="#ECC974" />
        </linearGradient>
        <linearGradient id="paint5_linear_5_1106" x1="29.5392" y1="9.70312" x2="29.5392"
            y2="19.6339" gradientUnits="userSpaceOnUse">
            <stop stop-color="#C1842D" />
            <stop offset="1" stop-color="#ECC974" />
        </linearGradient>
    </defs>
</svg>