<svg width="1019" height="1039" viewBox="0 0 1019 1039" fill="none" xmlns="http://www.w3.org/2000/svg">
<g style="mix-blend-mode:saturation" opacity="0.4">
<path d="M1368.07 743.291L917.561 820.038L917.683 823.456L1368.19 746.71L1368.07 743.291Z" fill="white"/>
<path d="M1368.07 743.291L917.561 820.038L917.683 823.456L1368.19 746.71L1368.07 743.291Z" fill="white"/>
<g opacity="0.48" style="mix-blend-mode:screen">
<path d="M1355.82 792.665L649.508 918.3L799.142 1066.35L1505.46 940.711C1505.8 929.556 1355.82 792.665 1355.82 792.665Z" fill="#F9C900"/>
</g>
<path d="M1368.14 1007.39L947.844 1082.01L949.303 1095.74L1369.59 1021.12L1368.14 1007.39Z" fill="white"/>
<path d="M1003.93 829.213L553.42 905.96L554.091 914.039L1004.61 837.283L1003.93 829.213Z" fill="white"/>
<path d="M1003.93 829.213L553.42 905.96L554.091 914.039L1004.61 837.283L1003.93 829.213Z" fill="white"/>
<path d="M1266.22 1066.17L815.717 1142.91L815.84 1146.33L1266.35 1069.58L1266.22 1066.17Z" fill="white"/>
<path d="M1266.22 1066.17L815.717 1142.91L815.84 1146.33L1266.35 1069.58L1266.22 1066.17Z" fill="white"/>
<path d="M1260.82 689.165L554.499 814.809L622.56 882.148L1328.88 756.504C1329.23 745.348 1260.82 689.165 1260.82 689.165Z" fill="#F9C900"/>
<path d="M1577.96 454.708L775.522 606.263L843.583 673.602L1646.02 522.047C1646.37 510.891 1577.96 454.708 1577.96 454.708Z" fill="#F9C900"/>
<path d="M958.632 920.777L320.519 1000.05L347.461 1062.11L986.575 948.423L958.632 920.777Z" fill="#F9C900"/>
<path d="M1164.25 983.451L525.14 1097.13L553.082 1124.78L1192.2 1011.1L1164.25 983.451Z" fill="#F9C900"/>
<path d="M1574.62 745.091L935.523 858.774L963.466 886.42L1602.56 772.737L1574.62 745.091Z" fill="#F9C900"/>
<path d="M1612.62 598.342L973.524 712.025L1001.47 720.546L1640.56 606.863L1612.62 598.342Z" fill="#F9C900"/>
<g opacity="0.5" style="mix-blend-mode:overlay">
<path d="M647.622 1030.35L2.51715 1133.05L36.4673 1171.67L675.565 1057.99L647.622 1030.35Z" fill="#F9C900"/>
</g>
<path d="M1416.68 852.884L710.367 978.519L860.002 1126.57L1566.32 1000.93C1566.66 989.774 1416.68 852.884 1416.68 852.884Z" fill="#DCBD3A"/>
</g>
</svg>
