<svg xmlns="http://www.w3.org/2000/svg" width="1440" height="3333" fill="none" viewBox="0 0 1440 3333"><g clip-path="url(#clip0_5_236)"><rect width="3000" height="3333" fill="#1C1C1C" transform="translate(-780)"/><g opacity=".2"><mask id="mask0_5_236" style="mask-type:luminance" width="1440" height="1020" x="0" y="3058" maskUnits="userSpaceOnUse"><path fill="#fff" d="M1440 3058.1H0V4077.47H1440V3058.1Z"/></mask><g mask="url(#mask0_5_236)"><path fill="#1C1C1C" d="M1440 3058.1H0V4077.47H1440V3058.1Z"/><path fill="url(#paint0_linear_5_236)" d="M260.058 4266.7C192.401 4266.7 126.765 4253.3 64.9721 4226.87C35.2759 4214.17 6.62967 4198.44 -20.1641 4180.14C-46.7028 4162.01 -71.6591 4141.19 -94.3353 4118.25C-117.015 4095.32 -137.603 4070.08 -155.535 4043.25C-173.637 4016.15 -189.184 3987.18 -201.747 3957.15C-227.88 3894.66 -241.133 3828.29 -241.133 3759.86C-241.133 3691.44 -227.88 3625.07 -201.747 3562.58C-189.184 3532.55 -173.64 3503.58 -155.535 3476.48C-137.607 3449.64 -117.015 3424.4 -94.3353 3401.47C-71.6553 3378.54 -46.6991 3357.72 -20.1641 3339.58C6.62967 3321.28 35.2722 3305.55 64.9721 3292.85C126.761 3266.42 192.397 3253.02 260.058 3253.02C327.72 3253.02 393.352 3266.42 455.145 3292.85C484.841 3305.55 513.487 3321.27 540.281 3339.58C566.82 3357.71 591.776 3378.54 614.452 3401.47C637.128 3424.41 657.723 3449.65 675.648 3476.48C693.75 3503.58 709.297 3532.54 721.86 3562.58C747.993 3625.06 761.246 3691.44 761.246 3759.86C761.246 3828.29 747.993 3894.66 721.86 3957.15C709.297 3987.18 693.75 4016.15 675.648 4043.25C657.72 4070.08 637.128 4095.32 614.452 4118.25C591.772 4141.19 566.816 4162.01 540.281 4180.14C513.487 4198.44 484.845 4214.17 455.145 4226.87C393.356 4253.3 327.72 4266.7 260.058 4266.7ZM260.058 3257.31C192.971 3257.31 127.89 3270.6 66.6259 3296.81C37.1809 3309.4 8.77843 3324.99 -17.7866 3343.14C-44.1003 3361.12 -68.8466 3381.76 -91.3353 3404.51C-113.824 3427.25 -134.239 3452.27 -152.018 3478.88C-169.965 3505.75 -185.382 3534.47 -197.835 3564.25C-223.748 3626.2 -236.888 3692.02 -236.888 3759.86C-236.888 3827.71 -223.748 3893.52 -197.835 3955.48C-185.382 3985.25 -169.965 4013.98 -152.018 4040.84C-134.239 4067.45 -113.824 4092.48 -91.3353 4115.22C-68.8466 4137.96 -44.1003 4158.61 -17.7866 4176.59C8.77843 4194.74 37.1809 4210.33 66.6259 4222.92C127.89 4249.13 192.971 4262.41 260.058 4262.41C327.146 4262.41 392.227 4249.13 453.491 4222.92C482.936 4210.33 511.338 4194.74 537.903 4176.59C564.217 4158.61 588.963 4137.96 611.452 4115.22C633.941 4092.48 654.356 4067.45 672.135 4040.84C690.082 4013.98 705.498 3985.25 717.952 3955.48C743.865 3893.52 757.005 3827.71 757.005 3759.86C757.005 3692.02 743.865 3626.2 717.952 3564.25C705.498 3534.47 690.082 3505.75 672.135 3478.88C654.356 3452.27 633.941 3427.25 611.452 3404.51C588.963 3381.76 564.217 3361.12 537.903 3343.14C511.338 3324.99 482.936 3309.4 453.491 3296.81C392.227 3270.6 327.146 3257.31 260.058 3257.31Z"/><path fill="url(#paint1_linear_5_236)" d="M962.437 3329.63C916.144 3329.63 871.23 3320.46 828.949 3302.37C788.111 3284.91 751.436 3259.9 719.944 3228.05C688.451 3196.21 663.724 3159.12 646.451 3117.82C628.568 3075.06 619.5 3029.64 619.5 2982.82C619.5 2936 628.568 2890.59 646.451 2847.83C663.724 2806.53 688.451 2769.44 719.944 2737.6C751.436 2705.75 788.111 2680.74 828.949 2663.27C871.23 2645.19 916.14 2636.02 962.437 2636.02C1008.73 2636.02 1053.64 2645.19 1095.93 2663.27C1136.76 2680.74 1173.44 2705.75 1204.93 2737.6C1236.42 2769.44 1261.15 2806.53 1278.42 2847.83C1296.31 2890.59 1305.38 2936 1305.38 2982.82C1305.38 3029.64 1296.31 3075.06 1278.42 3117.82C1261.15 3159.12 1236.42 3196.21 1204.93 3228.05C1173.44 3259.9 1136.76 3284.91 1095.93 3302.37C1053.64 3320.46 1008.73 3329.63 962.437 3329.63ZM962.437 2640.57C916.747 2640.57 872.426 2649.62 830.704 2667.47C790.402 2684.7 754.208 2709.38 723.128 2740.82C692.044 2772.25 667.643 2808.85 650.595 2849.61C632.948 2891.8 624 2936.62 624 2982.82C624 3029.03 632.948 3073.85 650.595 3116.04C667.643 3156.8 692.044 3193.4 723.128 3224.83C754.211 3256.27 790.402 3280.94 830.704 3298.18C872.426 3316.03 916.747 3325.08 962.437 3325.08C1008.13 3325.08 1052.45 3316.03 1094.17 3298.18C1134.47 3280.94 1170.67 3256.27 1201.75 3224.83C1232.83 3193.4 1257.23 3156.8 1274.28 3116.04C1291.93 3073.85 1300.88 3029.03 1300.88 2982.82C1300.88 2936.62 1291.93 2891.8 1274.28 2849.61C1257.23 2808.85 1232.83 2772.25 1201.75 2740.82C1170.66 2709.38 1134.47 2684.7 1094.17 2667.47C1052.45 2649.62 1008.13 2640.57 962.437 2640.57Z"/><path fill="url(#paint2_linear_5_236)" d="M181.875 3333.42C159.236 3333.42 137.955 3324.51 121.946 3308.32C105.938 3292.13 97.125 3270.61 97.125 3247.72C97.125 3224.82 105.941 3203.3 121.946 3187.11C137.955 3170.92 159.236 3162.01 181.875 3162.01C204.514 3162.01 225.795 3170.93 241.804 3187.11C257.813 3203.3 266.625 3224.82 266.625 3247.72C266.625 3270.61 257.809 3292.13 241.804 3308.32C225.795 3324.51 204.514 3333.42 181.875 3333.42ZM181.875 3164.29C159.84 3164.29 139.121 3172.96 123.54 3188.72C107.959 3204.48 99.375 3225.43 99.375 3247.72C99.375 3270 107.955 3290.95 123.54 3306.71C139.121 3322.47 159.84 3331.15 181.875 3331.15C203.91 3331.15 224.629 3322.47 240.21 3306.71C255.791 3290.95 264.375 3270 264.375 3247.72C264.375 3225.43 255.795 3204.48 240.21 3188.72C224.629 3172.97 203.91 3164.29 181.875 3164.29Z"/><g opacity=".7"><path fill="#fff" d="M371.839 3085.74L360.998 3096.7C360.33 3097.38 359.246 3097.38 358.579 3096.7C357.911 3096.03 357.911 3094.93 358.579 3094.26L369.42 3083.29C370.088 3082.62 371.171 3082.62 371.839 3083.29C372.506 3083.97 372.506 3085.06 371.839 3085.74Z"/><path fill="#fff" d="M371.839 3096.7C371.171 3097.38 370.088 3097.38 369.42 3096.7L358.579 3085.74C357.911 3085.06 357.911 3083.97 358.579 3083.29C359.246 3082.62 360.33 3082.62 360.998 3083.29L371.839 3094.26C372.506 3094.93 372.506 3096.03 371.839 3096.7Z"/></g><g opacity=".7"><path fill="#fff" d="M760.957 3330.49H753.293C752.82 3330.49 752.438 3330.11 752.438 3329.63C752.438 3329.15 752.82 3328.76 753.293 3328.76H760.957C761.43 3328.76 761.812 3329.15 761.812 3329.63C761.812 3330.11 761.43 3330.49 760.957 3330.49Z"/><path fill="#fff" d="M757.121 3334.37C756.648 3334.37 756.266 3333.98 756.266 3333.5V3325.75C756.266 3325.28 756.648 3324.89 757.121 3324.89C757.593 3324.89 757.976 3325.28 757.976 3325.75V3333.5C757.976 3333.98 757.593 3334.37 757.121 3334.37Z"/></g><g opacity=".7"><path fill="#fff" d="M1400.9 3121.15H1395.38C1395.04 3121.15 1394.77 3120.87 1394.77 3120.52C1394.77 3120.18 1395.04 3119.9 1395.38 3119.9H1400.9C1401.24 3119.9 1401.52 3120.18 1401.52 3120.52C1401.52 3120.87 1401.24 3121.15 1400.9 3121.15Z"/><path fill="#fff" d="M1398.14 3123.93C1397.8 3123.93 1397.52 3123.66 1397.52 3123.31V3117.73C1397.52 3117.38 1397.8 3117.11 1398.14 3117.11C1398.48 3117.11 1398.75 3117.38 1398.75 3117.73V3123.31C1398.75 3123.66 1398.48 3123.93 1398.14 3123.93Z"/></g><path fill="#fff" d="M330.93 3312.37C333.001 3312.37 334.68 3310.68 334.68 3308.58C334.68 3306.49 333.001 3304.79 330.93 3304.79C328.859 3304.79 327.18 3306.49 327.18 3308.58C327.18 3310.68 328.859 3312.37 330.93 3312.37Z" opacity=".7"/><path fill="#DF2171" d="M693.555 3211.31C695.108 3211.31 696.367 3210.04 696.367 3208.47C696.367 3206.9 695.108 3205.62 693.555 3205.62C692.001 3205.62 690.742 3206.9 690.742 3208.47C690.742 3210.04 692.001 3211.31 693.555 3211.31Z" opacity=".7"/><path fill="#fff" d="M1052.62 3219.65C1055.72 3219.65 1058.24 3217.11 1058.24 3213.97C1058.24 3210.82 1055.72 3208.28 1052.62 3208.28C1049.51 3208.28 1046.99 3210.82 1046.99 3213.97C1046.99 3217.11 1049.51 3219.65 1052.62 3219.65Z" opacity=".7"/><path fill="#DF2171" d="M70.1172 3215.67C72.706 3215.67 74.8047 3213.55 74.8047 3210.93C74.8047 3208.31 72.706 3206.19 70.1172 3206.19C67.5284 3206.19 65.4297 3208.31 65.4297 3210.93C65.4297 3213.55 67.5284 3215.67 70.1172 3215.67Z" opacity=".7"/></g></g><g opacity=".2"><mask id="mask1_5_236" style="mask-type:luminance" width="1440" height="1020" x="0" y="0" maskUnits="userSpaceOnUse"><path fill="#fff" d="M1440 0H0V1019.37H1440V0Z"/></mask><g mask="url(#mask1_5_236)"><path fill="#1C1C1C" d="M1440 0H0V1019.37H1440V0Z"/><path fill="url(#paint3_linear_5_236)" d="M1481.85 912.112C1458.02 920.975 1433.19 924.85 1408.05 923.637C1383.76 922.465 1360.2 916.614 1338.03 906.253C1315.86 895.889 1296.19 881.535 1279.57 863.586C1262.36 845.004 1249.19 823.361 1240.43 799.269C1231.67 775.173 1227.84 750.06 1229.04 724.633C1230.19 700.07 1235.98 676.251 1246.23 653.827C1256.47 631.407 1270.67 611.516 1288.42 594.709C1306.79 577.306 1328.19 563.991 1352.02 555.129C1375.84 546.266 1400.68 542.39 1425.82 543.604C1450.11 544.776 1473.66 550.627 1495.84 560.988C1518.01 571.352 1537.68 585.706 1554.3 603.655C1571.5 622.237 1584.67 643.88 1593.43 667.972C1602.2 692.068 1606.03 717.181 1604.83 742.608C1603.67 767.171 1597.88 790.99 1587.64 813.414C1577.39 835.834 1563.2 855.725 1545.45 872.532C1527.07 889.935 1505.67 903.25 1481.85 912.112ZM1353.57 559.395C1330.31 568.045 1309.42 581.045 1291.49 598.027C1274.16 614.433 1260.31 633.845 1250.3 655.734C1240.3 677.62 1234.66 700.874 1233.52 724.845C1232.35 749.666 1236.1 774.175 1244.65 797.695C1253.2 821.215 1266.06 842.338 1282.85 860.476C1299.07 877.997 1318.27 892.005 1339.91 902.123C1361.56 912.241 1384.55 917.948 1408.26 919.094C1432.8 920.277 1457.04 916.492 1480.29 907.842C1503.55 899.192 1524.44 886.196 1542.37 869.21C1559.7 852.805 1573.55 833.392 1583.56 811.503C1593.56 789.617 1599.2 766.363 1600.34 742.392C1601.51 717.571 1597.76 693.062 1589.21 669.542C1580.66 646.022 1567.81 624.899 1551.01 606.761C1534.79 589.24 1515.59 575.232 1493.95 565.114C1472.3 554.996 1449.31 549.289 1425.61 548.143C1401.06 546.96 1376.83 550.745 1353.57 559.395Z"/><path fill="url(#paint4_linear_5_236)" d="M260.058 1208.6C192.401 1208.6 126.765 1195.2 64.9721 1168.77C35.2759 1156.07 6.62967 1140.34 -20.1641 1122.04C-46.7028 1103.91 -71.6591 1083.08 -94.3353 1060.15C-117.015 1037.22 -137.603 1011.98 -155.535 985.144C-173.637 958.048 -189.184 929.082 -201.747 899.047C-227.88 836.562 -241.133 770.185 -241.133 701.761C-241.133 633.337 -227.88 566.964 -201.747 504.475C-189.184 474.444 -173.64 445.474 -155.535 418.379C-137.607 391.54 -117.015 366.303 -94.3353 343.371C-71.6553 320.439 -46.6991 299.615 -20.1641 281.481C6.62967 263.175 35.2722 247.452 64.9721 234.748C126.761 208.32 192.397 194.918 260.058 194.918C327.72 194.918 393.352 208.32 455.145 234.748C484.841 247.452 513.487 263.171 540.281 281.481C566.82 299.612 591.776 320.435 614.452 343.371C637.128 366.307 657.723 391.544 675.648 418.379C693.75 445.474 709.297 474.44 721.86 504.475C747.993 566.96 761.246 633.337 761.246 701.761C761.246 770.185 747.993 836.558 721.86 899.047C709.297 929.079 693.75 958.048 675.648 985.144C657.72 1011.98 637.128 1037.22 614.452 1060.15C591.772 1083.09 566.816 1103.91 540.281 1122.04C513.487 1140.34 484.845 1156.07 455.145 1168.77C393.356 1195.2 327.72 1208.6 260.058 1208.6ZM260.058 199.211C192.971 199.211 127.89 212.499 66.6259 238.704C37.1809 251.298 8.77843 266.888 -17.7866 285.038C-44.1003 303.017 -68.8466 323.662 -91.3353 346.405C-113.824 369.147 -134.239 394.172 -152.018 420.783C-169.965 447.647 -185.382 476.37 -197.835 506.147C-223.748 568.102 -236.888 633.917 -236.888 701.761C-236.888 769.605 -223.748 835.42 -197.835 897.375C-185.382 927.152 -169.965 955.875 -152.018 982.74C-134.239 1009.35 -113.824 1034.38 -91.3353 1057.12C-68.8466 1079.86 -44.1003 1100.51 -17.7866 1118.48C8.77843 1136.63 37.1809 1152.22 66.6259 1164.82C127.89 1191.02 192.971 1204.31 260.058 1204.31C327.146 1204.31 392.227 1191.02 453.491 1164.82C482.936 1152.22 511.338 1136.63 537.903 1118.48C564.217 1100.51 588.963 1079.86 611.452 1057.12C633.941 1034.38 654.356 1009.35 672.135 982.74C690.082 955.875 705.498 927.152 717.952 897.375C743.865 835.42 757.005 769.605 757.005 701.761C757.005 633.917 743.865 568.102 717.952 506.147C705.498 476.37 690.082 447.647 672.135 420.783C654.356 394.172 633.941 369.147 611.452 346.405C588.963 323.662 564.217 303.017 537.903 285.038C511.338 266.888 482.936 251.298 453.491 238.704C392.227 212.499 327.146 199.211 260.058 199.211Z"/><path fill="url(#paint5_linear_5_236)" d="M962.437 271.528C916.144 271.528 871.23 262.358 828.949 244.272C788.111 226.805 751.436 201.799 719.944 169.951C688.451 138.103 663.724 101.015 646.451 59.7168C628.568 16.9587 619.5 -28.4577 619.5 -75.2773C619.5 -122.097 628.568 -167.513 646.451 -210.271C663.724 -251.569 688.451 -288.658 719.944 -320.506C751.436 -352.353 788.111 -377.36 828.949 -394.827C871.23 -412.912 916.14 -422.082 962.437 -422.082C1008.73 -422.082 1053.64 -412.912 1095.93 -394.827C1136.76 -377.36 1173.44 -352.353 1204.93 -320.506C1236.42 -288.658 1261.15 -251.569 1278.42 -210.271C1296.31 -167.513 1305.38 -122.097 1305.38 -75.2773C1305.38 -28.4577 1296.31 16.9587 1278.42 59.7168C1261.15 101.015 1236.42 138.103 1204.93 169.951C1173.44 201.799 1136.76 226.805 1095.93 244.272C1053.64 262.358 1008.73 271.528 962.437 271.528ZM962.437 -417.531C916.747 -417.531 872.426 -408.483 830.704 -390.636C790.402 -373.397 754.208 -348.72 723.128 -317.286C692.044 -285.852 667.643 -249.252 650.595 -208.497C632.948 -166.304 624 -121.483 624 -75.2773C624 -29.0721 632.948 15.749 650.595 57.942C667.643 98.6978 692.044 135.301 723.128 166.731C754.211 198.166 790.402 222.842 830.704 240.082C872.426 257.928 916.747 266.977 962.437 266.977C1008.13 266.977 1052.45 257.928 1094.17 240.082C1134.47 222.842 1170.67 198.166 1201.75 166.731C1232.83 135.297 1257.23 98.6978 1274.28 57.942C1291.93 15.749 1300.88 -29.0721 1300.88 -75.2773C1300.88 -121.483 1291.93 -166.304 1274.28 -208.497C1257.23 -249.252 1232.83 -285.856 1201.75 -317.286C1170.66 -348.72 1134.47 -373.397 1094.17 -390.636C1052.45 -408.483 1008.13 -417.531 962.437 -417.531Z"/><path fill="url(#paint6_linear_5_236)" d="M181.875 275.32C159.236 275.32 137.955 266.404 121.946 250.218C105.938 234.029 97.125 212.508 97.125 189.614C97.125 166.72 105.941 145.199 121.946 129.009C137.955 112.82 159.236 103.908 181.875 103.908C204.514 103.908 225.795 112.824 241.804 129.009C257.813 145.199 266.625 166.72 266.625 189.614C266.625 212.508 257.809 234.029 241.804 250.218C225.795 266.408 204.514 275.32 181.875 275.32ZM181.875 106.183C159.84 106.183 139.121 114.86 123.54 130.621C107.959 146.378 99.375 167.33 99.375 189.614C99.375 211.897 107.955 232.85 123.54 248.607C139.121 264.364 159.84 273.044 181.875 273.044C203.91 273.044 224.629 264.367 240.21 248.607C255.791 232.85 264.375 211.897 264.375 189.614C264.375 167.33 255.795 146.378 240.21 130.621C224.629 114.864 203.91 106.183 181.875 106.183Z"/><path fill="url(#paint7_linear_5_236)" d="M1026.92 733.808C990.221 733.808 960.359 703.61 960.359 666.495C960.359 629.38 990.221 599.182 1026.92 599.182C1063.62 599.182 1093.48 629.38 1093.48 666.495C1093.48 703.61 1063.62 733.808 1026.92 733.808ZM1026.92 601.457C991.458 601.457 962.609 630.631 962.609 666.495C962.609 702.358 991.458 731.533 1026.92 731.533C1062.39 731.533 1091.23 702.358 1091.23 666.495C1091.23 630.631 1062.39 601.457 1026.92 601.457Z"/><g opacity=".7"><path fill="#fff" d="M1040.16 423.955L1029.32 412.991C1028.65 412.316 1028.65 411.22 1029.32 410.545C1029.99 409.87 1031.07 409.87 1031.74 410.545L1042.58 421.509C1043.25 422.184 1043.25 423.28 1042.58 423.955C1041.91 424.63 1040.83 424.63 1040.16 423.955Z"/><path fill="#fff" d="M1029.32 423.955C1028.65 423.28 1028.65 422.184 1029.32 421.509L1040.16 410.545C1040.83 409.87 1041.91 409.87 1042.58 410.545C1043.25 411.22 1043.25 412.316 1042.58 412.991L1031.74 423.955C1031.07 424.63 1029.99 424.63 1029.32 423.955Z"/></g><path fill="url(#paint8_linear_5_236)" d="M108.578 738.646L149.314 665.061H151.381L110.644 738.646H108.578Z"/><path fill="url(#paint9_linear_5_236)" d="M87.2031 738.646L127.939 665.061H130.006L89.2694 738.646H87.2031Z"/><path fill="url(#paint10_linear_5_236)" d="M65.8281 738.646L106.564 665.061H108.631L67.8944 738.646H65.8281Z"/><path fill="url(#paint11_linear_5_236)" d="M44.4531 738.646L85.1894 665.061H87.2556L46.5194 738.646H44.4531Z"/><path fill="url(#paint12_linear_5_236)" d="M23.0781 738.646L63.8144 665.061H65.8806L25.1444 738.646H23.0781Z"/><path fill="url(#paint13_linear_5_236)" d="M1.70312 738.646L42.4394 665.061H44.5056L3.76938 738.646H1.70312Z"/><path fill="url(#paint14_linear_5_236)" d="M-19.6719 738.646L21.0644 665.061H23.1306L-17.6056 738.646H-19.6719Z"/><path fill="url(#paint15_linear_5_236)" d="M-41.0469 738.646L-0.310627 665.061H1.75563L-38.9806 738.646H-41.0469Z"/><g opacity=".7"><path fill="#fff" d="M371.839 27.6378L360.998 38.6012C360.33 39.2763 359.246 39.2763 358.579 38.6012C357.911 37.9262 357.911 36.8302 358.579 36.1552L369.42 25.1917C370.088 24.5167 371.171 24.5167 371.839 25.1917C372.506 25.8667 372.506 26.9627 371.839 27.6378Z"/><path fill="#fff" d="M371.839 38.6012C371.171 39.2763 370.088 39.2763 369.42 38.6012L358.579 27.6378C357.911 26.9627 357.911 25.8667 358.579 25.1917C359.246 24.5167 360.33 24.5167 360.998 25.1917L371.839 36.1552C372.506 36.8302 372.506 37.9262 371.839 38.6012Z"/></g><g opacity=".7"><path fill="#fff" d="M649.358 667.805H637.095C636.338 667.805 635.727 667.186 635.727 666.419C635.727 665.652 636.338 665.033 637.095 665.033H649.358C650.115 665.033 650.727 665.652 650.727 666.419C650.727 667.186 650.115 667.805 649.358 667.805Z"/><path fill="#fff" d="M643.228 674.003C642.471 674.003 641.859 673.385 641.859 672.619V660.218C641.859 659.452 642.471 658.834 643.228 658.834C643.986 658.834 644.597 659.452 644.597 660.218V672.619C644.597 673.385 643.986 674.003 643.228 674.003Z"/></g><g opacity=".7"><path fill="#fff" d="M760.957 272.393H753.293C752.82 272.393 752.438 272.006 752.438 271.527C752.438 271.049 752.82 270.662 753.293 270.662H760.957C761.43 270.662 761.812 271.049 761.812 271.527C761.812 272.006 761.43 272.393 760.957 272.393Z"/><path fill="#fff" d="M757.121 276.268C756.648 276.268 756.266 275.881 756.266 275.403V267.652C756.266 267.174 756.648 266.787 757.121 266.787C757.593 266.787 757.976 267.174 757.976 267.652V275.403C757.976 275.881 757.593 276.268 757.121 276.268Z"/></g><g opacity=".7"><path fill="#fff" d="M137.147 515.983L130.645 509.407C130.243 509.001 130.243 508.345 130.645 507.939C131.046 507.533 131.695 507.533 132.096 507.939L138.598 514.515C139 514.921 139 515.577 138.598 515.983C138.197 516.388 137.548 516.388 137.147 515.983Z"/><path fill="#fff" d="M130.645 515.983C130.243 515.577 130.243 514.921 130.645 514.515L137.147 507.939C137.548 507.533 138.197 507.533 138.598 507.939C139 508.345 139 509.001 138.598 509.407L132.096 515.983C131.695 516.388 131.046 516.388 130.645 515.983Z"/></g><g opacity=".7"><path fill="#fff" d="M1400.9 63.0449H1395.38C1395.04 63.0449 1394.77 62.7676 1394.77 62.4218C1394.77 62.0761 1395.04 61.7987 1395.38 61.7987H1400.9C1401.24 61.7987 1401.52 62.0761 1401.52 62.4218C1401.52 62.7676 1401.24 63.0449 1400.9 63.0449Z"/><path fill="#fff" d="M1398.14 65.8319C1397.8 65.8319 1397.52 65.555 1397.52 65.2099V59.6277C1397.52 59.2826 1397.8 59.0057 1398.14 59.0057C1398.48 59.0057 1398.75 59.2826 1398.75 59.6277V65.2099C1398.75 65.555 1398.48 65.8319 1398.14 65.8319Z"/></g><path fill="#DF2171" d="M886.867 600.131C889.456 600.131 891.555 598.009 891.555 595.391C891.555 592.773 889.456 590.65 886.867 590.65C884.278 590.65 882.18 592.773 882.18 595.391C882.18 598.009 884.278 600.131 886.867 600.131Z" opacity=".7"/><path fill="#DF2171" d="M1384.3 446.352C1386.89 446.352 1388.99 444.229 1388.99 441.611C1388.99 438.993 1386.89 436.871 1384.3 436.871C1381.72 436.871 1379.62 438.993 1379.62 441.611C1379.62 444.229 1381.72 446.352 1384.3 446.352Z" opacity=".7"/><path fill="#fff" d="M1166.06 704.988C1167.62 704.988 1168.87 703.715 1168.87 702.143C1168.87 700.572 1167.62 699.299 1166.06 699.299C1164.51 699.299 1163.25 700.572 1163.25 702.143C1163.25 703.715 1164.51 704.988 1166.06 704.988Z" opacity=".7"/><path fill="#fff" d="M344.43 765.473C347.536 765.473 350.055 762.926 350.055 759.784C350.055 756.643 347.536 754.096 344.43 754.096C341.323 754.096 338.805 756.643 338.805 759.784C338.805 762.926 341.323 765.473 344.43 765.473Z" opacity=".7"/><path fill="#fff" d="M330.93 254.272C333.001 254.272 334.68 252.574 334.68 250.48C334.68 248.385 333.001 246.687 330.93 246.687C328.859 246.687 327.18 248.385 327.18 250.48C327.18 252.574 328.859 254.272 330.93 254.272Z" opacity=".7"/><path fill="#DF2171" d="M693.555 153.211C695.108 153.211 696.367 151.937 696.367 150.366C696.367 148.795 695.108 147.521 693.555 147.521C692.001 147.521 690.742 148.795 690.742 150.366C690.742 151.937 692.001 153.211 693.555 153.211Z" opacity=".7"/><path fill="#fff" d="M1052.62 161.553C1055.72 161.553 1058.24 159.006 1058.24 155.864C1058.24 152.722 1055.72 150.176 1052.62 150.176C1049.51 150.176 1046.99 152.722 1046.99 155.864C1046.99 159.006 1049.51 161.553 1052.62 161.553Z" opacity=".7"/><path fill="#DF2171" d="M522.18 473.277C523.733 473.277 524.992 472.004 524.992 470.433C524.992 468.861 523.733 467.588 522.18 467.588C520.626 467.588 519.367 468.861 519.367 470.433C519.367 472.004 520.626 473.277 522.18 473.277Z" opacity=".7"/><path fill="#DF2171" d="M70.1172 157.568C72.706 157.568 74.8047 155.446 74.8047 152.828C74.8047 150.21 72.706 148.088 70.1172 148.088C67.5284 148.088 65.4297 150.21 65.4297 152.828C65.4297 155.446 67.5284 157.568 70.1172 157.568Z" opacity=".7"/></g></g><g opacity=".2"><mask id="mask2_5_236" style="mask-type:luminance" width="1440" height="1021" x="0" y="2038" maskUnits="userSpaceOnUse"><path fill="#fff" d="M1440 2038.73H0V3058.1H1440V2038.73Z"/></mask><g mask="url(#mask2_5_236)"><path fill="#1C1C1C" d="M1440 2038.73H0V3058.1H1440V2038.73Z"/><path fill="url(#paint16_linear_5_236)" d="M1481.85 2950.85C1458.02 2959.71 1433.19 2963.58 1408.05 2962.37C1383.76 2961.2 1360.2 2955.35 1338.03 2944.99C1315.86 2934.62 1296.19 2920.27 1279.57 2902.32C1262.36 2883.74 1249.19 2862.1 1240.43 2838C1231.67 2813.91 1227.84 2788.79 1229.04 2763.37C1230.19 2738.8 1235.98 2714.99 1246.23 2692.56C1256.47 2670.14 1270.67 2650.25 1288.42 2633.44C1306.79 2616.04 1328.19 2602.73 1352.02 2593.86C1375.84 2585 1400.68 2581.12 1425.82 2582.34C1450.11 2583.51 1473.66 2589.36 1495.84 2599.72C1518.01 2610.09 1537.68 2624.44 1554.3 2642.39C1571.5 2660.97 1584.67 2682.61 1593.43 2706.71C1602.2 2730.8 1606.03 2755.92 1604.83 2781.34C1603.67 2805.91 1597.88 2829.72 1587.64 2852.15C1577.39 2874.57 1563.2 2894.46 1545.45 2911.27C1527.07 2928.67 1505.67 2941.98 1481.85 2950.85ZM1353.57 2598.13C1330.31 2606.78 1309.42 2619.78 1291.49 2636.76C1274.16 2653.17 1260.31 2672.58 1250.3 2694.47C1240.3 2716.35 1234.66 2739.61 1233.52 2763.58C1232.35 2788.4 1236.1 2812.91 1244.65 2836.43C1253.2 2859.95 1266.06 2881.07 1282.85 2899.21C1299.07 2916.73 1318.27 2930.74 1339.91 2940.86C1361.56 2950.98 1384.55 2956.68 1408.26 2957.83C1432.8 2959.01 1457.04 2955.23 1480.29 2946.58C1503.55 2937.93 1524.44 2924.93 1542.37 2907.94C1559.7 2891.54 1573.55 2872.13 1583.56 2850.24C1593.56 2828.35 1599.2 2805.1 1600.34 2781.13C1601.51 2756.31 1597.76 2731.8 1589.21 2708.28C1580.66 2684.76 1567.81 2663.63 1551.01 2645.5C1534.79 2627.97 1515.59 2613.97 1493.95 2603.85C1472.3 2593.73 1449.31 2588.02 1425.61 2586.88C1401.06 2585.69 1376.83 2589.48 1353.57 2598.13Z"/><path fill="url(#paint17_linear_5_236)" d="M260.058 3247.34C192.401 3247.34 126.765 3233.93 64.9721 3207.5C35.2759 3194.8 6.62967 3179.08 -20.1641 3160.77C-46.7028 3142.64 -71.6591 3121.82 -94.3353 3098.89C-117.015 3075.95 -137.603 3050.71 -155.535 3023.88C-173.637 2996.78 -189.184 2967.82 -201.747 2937.78C-227.88 2875.3 -241.133 2808.92 -241.133 2740.5C-241.133 2672.07 -227.88 2605.7 -201.747 2543.21C-189.184 2513.18 -173.64 2484.21 -155.535 2457.11C-137.607 2430.27 -117.015 2405.04 -94.3353 2382.11C-71.6553 2359.17 -46.6991 2338.35 -20.1641 2320.22C6.62967 2301.91 35.2722 2286.19 64.9721 2273.48C126.761 2247.05 192.397 2233.65 260.058 2233.65C327.72 2233.65 393.352 2247.05 455.145 2273.48C484.841 2286.19 513.487 2301.91 540.281 2320.22C566.82 2338.35 591.776 2359.17 614.452 2382.11C637.128 2405.04 657.723 2430.28 675.648 2457.11C693.75 2484.21 709.297 2513.17 721.86 2543.21C747.993 2605.69 761.246 2672.07 761.246 2740.5C761.246 2808.92 747.993 2875.29 721.86 2937.78C709.297 2967.81 693.75 2996.78 675.648 3023.88C657.72 3050.72 637.128 3075.95 614.452 3098.89C591.772 3121.82 566.816 3142.64 540.281 3160.77C513.487 3179.08 484.845 3194.8 455.145 3207.5C393.356 3233.93 327.72 3247.34 260.058 3247.34ZM260.058 2237.95C192.971 2237.95 127.89 2251.23 66.6259 2277.44C37.1809 2290.03 8.77843 2305.62 -17.7866 2323.77C-44.1003 2341.75 -68.8466 2362.4 -91.3353 2385.14C-113.824 2407.88 -134.239 2432.91 -152.018 2459.52C-169.965 2486.38 -185.382 2515.1 -197.835 2544.88C-223.748 2606.84 -236.888 2672.65 -236.888 2740.5C-236.888 2808.34 -223.748 2874.15 -197.835 2936.11C-185.382 2965.89 -169.965 2994.61 -152.018 3021.47C-134.239 3048.08 -113.824 3073.11 -91.3353 3095.85C-68.8466 3118.59 -44.1003 3139.24 -17.7866 3157.22C8.77843 3175.37 37.1809 3190.96 66.6259 3203.55C127.89 3229.76 192.971 3243.05 260.058 3243.05C327.146 3243.05 392.227 3229.76 453.491 3203.55C482.936 3190.96 511.338 3175.37 537.903 3157.22C564.217 3139.24 588.963 3118.59 611.452 3095.85C633.941 3073.11 654.356 3048.08 672.135 3021.47C690.082 2994.61 705.498 2965.89 717.952 2936.11C743.865 2874.15 757.005 2808.34 757.005 2740.5C757.005 2672.65 743.865 2606.84 717.952 2544.88C705.498 2515.1 690.082 2486.38 672.135 2459.52C654.356 2432.91 633.941 2407.88 611.452 2385.14C588.963 2362.4 564.217 2341.75 537.903 2323.77C511.338 2305.62 482.936 2290.03 453.491 2277.44C392.227 2251.23 327.146 2237.95 260.058 2237.95Z"/><path fill="url(#paint18_linear_5_236)" d="M962.437 2310.26C916.144 2310.26 871.23 2301.09 828.949 2283.01C788.111 2265.54 751.436 2240.53 719.944 2208.69C688.451 2176.84 663.724 2139.75 646.451 2098.45C628.568 2055.69 619.5 2010.28 619.5 1963.46C619.5 1916.64 628.568 1871.22 646.451 1828.46C663.724 1787.17 688.451 1750.08 719.944 1718.23C751.436 1686.38 788.111 1661.37 828.949 1643.91C871.23 1625.82 916.14 1616.65 962.437 1616.65C1008.73 1616.65 1053.64 1625.82 1095.93 1643.91C1136.76 1661.37 1173.44 1686.38 1204.93 1718.23C1236.42 1750.08 1261.15 1787.17 1278.42 1828.46C1296.31 1871.22 1305.38 1916.64 1305.38 1963.46C1305.38 2010.28 1296.31 2055.69 1278.42 2098.45C1261.15 2139.75 1236.42 2176.84 1204.93 2208.69C1173.44 2240.53 1136.76 2265.54 1095.93 2283.01C1053.64 2301.09 1008.73 2310.26 962.437 2310.26ZM962.437 1621.2C916.747 1621.2 872.426 1630.25 830.704 1648.1C790.402 1665.34 754.208 1690.01 723.128 1721.45C692.044 1752.88 667.643 1789.48 650.595 1830.24C632.948 1872.43 624 1917.25 624 1963.46C624 2009.66 632.948 2054.48 650.595 2096.68C667.643 2137.43 692.044 2174.04 723.128 2205.47C754.211 2236.9 790.402 2261.58 830.704 2278.82C872.426 2296.66 916.747 2305.71 962.437 2305.71C1008.13 2305.71 1052.45 2296.66 1094.17 2278.82C1134.47 2261.58 1170.67 2236.9 1201.75 2205.47C1232.83 2174.03 1257.23 2137.43 1274.28 2096.68C1291.93 2054.48 1300.88 2009.66 1300.88 1963.46C1300.88 1917.25 1291.93 1872.43 1274.28 1830.24C1257.23 1789.48 1232.83 1752.88 1201.75 1721.45C1170.66 1690.01 1134.47 1665.34 1094.17 1648.1C1052.45 1630.25 1008.13 1621.2 962.437 1621.2Z"/><path fill="url(#paint19_linear_5_236)" d="M181.875 2314.05C159.236 2314.05 137.955 2305.14 121.946 2288.95C105.938 2272.76 97.125 2251.24 97.125 2228.35C97.125 2205.45 105.941 2183.93 121.946 2167.74C137.955 2151.55 159.236 2142.64 181.875 2142.64C204.514 2142.64 225.795 2151.56 241.804 2167.74C257.813 2183.93 266.625 2205.45 266.625 2228.35C266.625 2251.24 257.809 2272.76 241.804 2288.95C225.795 2305.14 204.514 2314.05 181.875 2314.05ZM181.875 2144.92C159.84 2144.92 139.121 2153.59 123.54 2169.36C107.959 2185.11 99.375 2206.06 99.375 2228.35C99.375 2250.63 107.955 2271.58 123.54 2287.34C139.121 2303.1 159.84 2311.78 181.875 2311.78C203.91 2311.78 224.629 2303.1 240.21 2287.34C255.791 2271.58 264.375 2250.63 264.375 2228.35C264.375 2206.06 255.795 2185.11 240.21 2169.36C224.629 2153.6 203.91 2144.92 181.875 2144.92Z"/><path fill="url(#paint20_linear_5_236)" d="M1026.92 2772.54C990.221 2772.54 960.359 2742.34 960.359 2705.23C960.359 2668.11 990.221 2637.92 1026.92 2637.92C1063.62 2637.92 1093.48 2668.11 1093.48 2705.23C1093.48 2742.34 1063.62 2772.54 1026.92 2772.54ZM1026.92 2640.19C991.458 2640.19 962.609 2669.37 962.609 2705.23C962.609 2741.09 991.458 2770.27 1026.92 2770.27C1062.39 2770.27 1091.23 2741.09 1091.23 2705.23C1091.23 2669.37 1062.39 2640.19 1026.92 2640.19Z"/><g opacity=".7"><path fill="#fff" d="M1040.16 2462.69L1029.32 2451.73C1028.65 2451.05 1028.65 2449.95 1029.32 2449.28C1029.99 2448.6 1031.07 2448.6 1031.74 2449.28L1042.58 2460.24C1043.25 2460.92 1043.25 2462.01 1042.58 2462.69C1041.91 2463.36 1040.83 2463.36 1040.16 2462.69Z"/><path fill="#fff" d="M1029.32 2462.69C1028.65 2462.01 1028.65 2460.92 1029.32 2460.24L1040.16 2449.28C1040.83 2448.6 1041.91 2448.6 1042.58 2449.28C1043.25 2449.95 1043.25 2451.05 1042.58 2451.73L1031.74 2462.69C1031.07 2463.36 1029.99 2463.36 1029.32 2462.69Z"/></g><path fill="url(#paint21_linear_5_236)" d="M108.578 2777.38L149.314 2703.8H151.381L110.644 2777.38H108.578Z"/><path fill="url(#paint22_linear_5_236)" d="M87.2031 2777.38L127.939 2703.8H130.006L89.2694 2777.38H87.2031Z"/><path fill="url(#paint23_linear_5_236)" d="M65.8281 2777.38L106.564 2703.8H108.631L67.8944 2777.38H65.8281Z"/><path fill="url(#paint24_linear_5_236)" d="M44.4531 2777.38L85.1894 2703.8H87.2556L46.5194 2777.38H44.4531Z"/><path fill="url(#paint25_linear_5_236)" d="M23.0781 2777.38L63.8144 2703.8H65.8806L25.1444 2777.38H23.0781Z"/><path fill="url(#paint26_linear_5_236)" d="M1.70312 2777.38L42.4394 2703.8H44.5056L3.76938 2777.38H1.70312Z"/><path fill="url(#paint27_linear_5_236)" d="M-19.6719 2777.38L21.0644 2703.8H23.1306L-17.6056 2777.38H-19.6719Z"/><path fill="url(#paint28_linear_5_236)" d="M-41.0469 2777.38L-0.310627 2703.8H1.75563L-38.9806 2777.38H-41.0469Z"/><g opacity=".7"><path fill="#fff" d="M371.839 2066.37L360.998 2077.34C360.33 2078.01 359.246 2078.01 358.579 2077.34C357.911 2076.66 357.911 2075.56 358.579 2074.89L369.42 2063.93C370.088 2063.25 371.171 2063.25 371.839 2063.93C372.506 2064.6 372.506 2065.7 371.839 2066.37Z"/><path fill="#fff" d="M371.839 2077.34C371.171 2078.01 370.088 2078.01 369.42 2077.34L358.579 2066.37C357.911 2065.7 357.911 2064.6 358.579 2063.93C359.246 2063.25 360.33 2063.25 360.998 2063.93L371.839 2074.89C372.506 2075.56 372.506 2076.66 371.839 2077.34Z"/></g><g opacity=".7"><path fill="#fff" d="M649.358 2706.54H637.095C636.338 2706.54 635.727 2705.92 635.727 2705.15C635.727 2704.39 636.338 2703.77 637.095 2703.77H649.358C650.115 2703.77 650.727 2704.39 650.727 2705.15C650.727 2705.92 650.115 2706.54 649.358 2706.54Z"/><path fill="#fff" d="M643.228 2712.74C642.471 2712.74 641.859 2712.12 641.859 2711.35V2698.95C641.859 2698.19 642.471 2697.57 643.228 2697.57C643.986 2697.57 644.597 2698.19 644.597 2698.95V2711.35C644.597 2712.12 643.986 2712.74 643.228 2712.74Z"/></g><g opacity=".7"><path fill="#fff" d="M760.957 2311.13H753.293C752.82 2311.13 752.438 2310.74 752.438 2310.26C752.438 2309.78 752.82 2309.4 753.293 2309.4H760.957C761.43 2309.4 761.812 2309.78 761.812 2310.26C761.812 2310.74 761.43 2311.13 760.957 2311.13Z"/><path fill="#fff" d="M757.121 2315C756.648 2315 756.266 2314.62 756.266 2314.14V2306.39C756.266 2305.91 756.648 2305.52 757.121 2305.52C757.593 2305.52 757.976 2305.91 757.976 2306.39V2314.14C757.976 2314.62 757.593 2315 757.121 2315Z"/></g><g opacity=".7"><path fill="#fff" d="M137.147 2554.72L130.645 2548.14C130.243 2547.74 130.243 2547.08 130.645 2546.67C131.046 2546.27 131.695 2546.27 132.096 2546.67L138.598 2553.25C139 2553.66 139 2554.31 138.598 2554.72C138.197 2555.12 137.548 2555.12 137.147 2554.72Z"/><path fill="#fff" d="M130.645 2554.72C130.243 2554.31 130.243 2553.66 130.645 2553.25L137.147 2546.67C137.548 2546.27 138.197 2546.27 138.598 2546.67C139 2547.08 139 2547.74 138.598 2548.14L132.096 2554.72C131.695 2555.12 131.046 2555.12 130.645 2554.72Z"/></g><g opacity=".7"><path fill="#fff" d="M1400.9 2101.78H1395.38C1395.04 2101.78 1394.77 2101.5 1394.77 2101.16C1394.77 2100.81 1395.04 2100.53 1395.38 2100.53H1400.9C1401.24 2100.53 1401.52 2100.81 1401.52 2101.16C1401.52 2101.5 1401.24 2101.78 1400.9 2101.78Z"/><path fill="#fff" d="M1398.14 2104.57C1397.8 2104.57 1397.52 2104.29 1397.52 2103.94V2098.36C1397.52 2098.02 1397.8 2097.74 1398.14 2097.74C1398.48 2097.74 1398.75 2098.02 1398.75 2098.36V2103.94C1398.75 2104.29 1398.48 2104.57 1398.14 2104.57Z"/></g><path fill="#DF2171" d="M886.867 2638.87C889.456 2638.87 891.555 2636.74 891.555 2634.13C891.555 2631.51 889.456 2629.38 886.867 2629.38C884.278 2629.38 882.18 2631.51 882.18 2634.13C882.18 2636.74 884.278 2638.87 886.867 2638.87Z" opacity=".7"/><path fill="#DF2171" d="M1384.3 2485.09C1386.89 2485.09 1388.99 2482.96 1388.99 2480.35C1388.99 2477.73 1386.89 2475.61 1384.3 2475.61C1381.72 2475.61 1379.62 2477.73 1379.62 2480.35C1379.62 2482.96 1381.72 2485.09 1384.3 2485.09Z" opacity=".7"/><path fill="#fff" d="M1166.06 2743.72C1167.62 2743.72 1168.87 2742.45 1168.87 2740.88C1168.87 2739.31 1167.62 2738.03 1166.06 2738.03C1164.51 2738.03 1163.25 2739.31 1163.25 2740.88C1163.25 2742.45 1164.51 2743.72 1166.06 2743.72Z" opacity=".7"/><path fill="#fff" d="M344.43 2804.21C347.536 2804.21 350.055 2801.66 350.055 2798.52C350.055 2795.38 347.536 2792.83 344.43 2792.83C341.323 2792.83 338.805 2795.38 338.805 2798.52C338.805 2801.66 341.323 2804.21 344.43 2804.21Z" opacity=".7"/><path fill="#fff" d="M330.93 2293.01C333.001 2293.01 334.68 2291.31 334.68 2289.21C334.68 2287.12 333.001 2285.42 330.93 2285.42C328.859 2285.42 327.18 2287.12 327.18 2289.21C327.18 2291.31 328.859 2293.01 330.93 2293.01Z" opacity=".7"/><path fill="#DF2171" d="M693.555 2191.95C695.108 2191.95 696.367 2190.67 696.367 2189.1C696.367 2187.53 695.108 2186.26 693.555 2186.26C692.001 2186.26 690.742 2187.53 690.742 2189.1C690.742 2190.67 692.001 2191.95 693.555 2191.95Z" opacity=".7"/><path fill="#fff" d="M1052.62 2200.29C1055.72 2200.29 1058.24 2197.74 1058.24 2194.6C1058.24 2191.46 1055.72 2188.91 1052.62 2188.91C1049.51 2188.91 1046.99 2191.46 1046.99 2194.6C1046.99 2197.74 1049.51 2200.29 1052.62 2200.29Z" opacity=".7"/><path fill="#DF2171" d="M522.18 2512.01C523.733 2512.01 524.992 2510.74 524.992 2509.17C524.992 2507.6 523.733 2506.32 522.18 2506.32C520.626 2506.32 519.367 2507.6 519.367 2509.17C519.367 2510.74 520.626 2512.01 522.18 2512.01Z" opacity=".7"/><path fill="#DF2171" d="M70.1172 2196.3C72.706 2196.3 74.8047 2194.18 74.8047 2191.56C74.8047 2188.94 72.706 2186.82 70.1172 2186.82C67.5284 2186.82 65.4297 2188.94 65.4297 2191.56C65.4297 2194.18 67.5284 2196.3 70.1172 2196.3Z" opacity=".7"/></g></g><g opacity=".2"><mask id="mask3_5_236" style="mask-type:luminance" width="1440" height="1020" x="0" y="1019" maskUnits="userSpaceOnUse"><path fill="#fff" d="M1440 1019.37H0V2038.73H1440V1019.37Z"/></mask><g mask="url(#mask3_5_236)"><path fill="#1C1C1C" d="M1440 1019.37H0V2038.73H1440V1019.37Z"/><path fill="url(#paint29_linear_5_236)" d="M1481.85 1931.48C1458.02 1940.34 1433.19 1944.22 1408.05 1943C1383.76 1941.83 1360.2 1935.98 1338.03 1925.62C1315.86 1915.26 1296.19 1900.9 1279.57 1882.95C1262.36 1864.37 1249.19 1842.73 1240.43 1818.64C1231.67 1794.54 1227.84 1769.43 1229.04 1744C1230.19 1719.44 1235.98 1695.62 1246.23 1673.19C1256.47 1650.77 1270.67 1630.88 1288.42 1614.08C1306.79 1596.67 1328.19 1583.36 1352.02 1574.5C1375.84 1565.63 1400.68 1561.76 1425.82 1562.97C1450.11 1564.14 1473.66 1569.99 1495.84 1580.35C1518.01 1590.72 1537.68 1605.07 1554.3 1623.02C1571.5 1641.6 1584.67 1663.25 1593.43 1687.34C1602.2 1711.44 1606.03 1736.55 1604.83 1761.98C1603.67 1786.54 1597.88 1810.36 1587.64 1832.78C1577.39 1855.2 1563.2 1875.09 1545.45 1891.9C1527.07 1909.3 1505.67 1922.62 1481.85 1931.48ZM1353.57 1578.76C1330.31 1587.41 1309.42 1600.41 1291.49 1617.39C1274.16 1633.8 1260.31 1653.21 1250.3 1675.1C1240.3 1696.99 1234.66 1720.24 1233.52 1744.21C1232.35 1769.03 1236.1 1793.54 1244.65 1817.06C1253.2 1840.58 1266.06 1861.7 1282.85 1879.84C1299.07 1897.36 1318.27 1911.37 1339.91 1921.49C1361.56 1931.61 1384.55 1937.32 1408.26 1938.46C1432.8 1939.64 1457.04 1935.86 1480.29 1927.21C1503.55 1918.56 1524.44 1905.56 1542.37 1888.58C1559.7 1872.17 1573.55 1852.76 1583.56 1830.87C1593.56 1808.98 1599.2 1785.73 1600.34 1761.76C1601.51 1736.94 1597.76 1712.43 1589.21 1688.91C1580.66 1665.39 1567.81 1644.27 1551.01 1626.13C1534.79 1608.61 1515.59 1594.6 1493.95 1584.48C1472.3 1574.36 1449.31 1568.66 1425.61 1567.51C1401.06 1566.33 1376.83 1570.11 1353.57 1578.76Z"/><path fill="url(#paint30_linear_5_236)" d="M260.058 2227.97C192.401 2227.97 126.765 2214.57 64.9721 2188.14C35.2759 2175.43 6.62967 2159.71 -20.1641 2141.41C-46.7028 2123.27 -71.6591 2102.45 -94.3353 2079.52C-117.015 2056.58 -137.603 2031.35 -155.535 2004.51C-173.637 1977.42 -189.184 1948.45 -201.747 1918.41C-227.88 1855.93 -241.133 1789.55 -241.133 1721.13C-241.133 1652.7 -227.88 1586.33 -201.747 1523.84C-189.184 1493.81 -173.64 1464.84 -155.535 1437.75C-137.607 1410.91 -117.015 1385.67 -94.3353 1362.74C-71.6553 1339.81 -46.6991 1318.98 -20.1641 1300.85C6.62967 1282.54 35.2722 1266.82 64.9721 1254.12C126.761 1227.69 192.397 1214.29 260.058 1214.29C327.72 1214.29 393.352 1227.69 455.145 1254.12C484.841 1266.82 513.487 1282.54 540.281 1300.85C566.82 1318.98 591.776 1339.8 614.452 1362.74C637.128 1385.67 657.723 1410.91 675.648 1437.75C693.75 1464.84 709.297 1493.81 721.86 1523.84C747.993 1586.33 761.246 1652.7 761.246 1721.13C761.246 1789.55 747.993 1855.93 721.86 1918.41C709.297 1948.45 693.75 1977.42 675.648 2004.51C657.72 2031.35 637.128 2056.59 614.452 2079.52C591.772 2102.45 566.816 2123.27 540.281 2141.41C513.487 2159.71 484.845 2175.43 455.145 2188.14C393.356 2214.57 327.72 2227.97 260.058 2227.97ZM260.058 1218.58C192.971 1218.58 127.89 1231.87 66.6259 1258.07C37.1809 1270.67 8.77843 1286.26 -17.7866 1304.41C-44.1003 1322.38 -68.8466 1343.03 -91.3353 1365.77C-113.824 1388.51 -134.239 1413.54 -152.018 1440.15C-169.965 1467.01 -185.382 1495.74 -197.835 1525.51C-223.748 1587.47 -236.888 1653.28 -236.888 1721.13C-236.888 1788.97 -223.748 1854.79 -197.835 1916.74C-185.382 1946.52 -169.965 1975.24 -152.018 2002.11C-134.239 2028.72 -113.824 2053.74 -91.3353 2076.49C-68.8466 2099.23 -44.1003 2119.87 -17.7866 2137.85C8.77843 2156 37.1809 2171.59 66.6259 2184.19C127.89 2210.39 192.971 2223.68 260.058 2223.68C327.146 2223.68 392.227 2210.39 453.491 2184.19C482.936 2171.59 511.338 2156 537.903 2137.85C564.217 2119.87 588.963 2099.23 611.452 2076.49C633.941 2053.74 654.356 2028.72 672.135 2002.11C690.082 1975.24 705.498 1946.52 717.952 1916.74C743.865 1854.79 757.005 1788.97 757.005 1721.13C757.005 1653.28 743.865 1587.47 717.952 1525.51C705.498 1495.74 690.082 1467.01 672.135 1440.15C654.356 1413.54 633.941 1388.51 611.452 1365.77C588.963 1343.03 564.217 1322.38 537.903 1304.41C511.338 1286.26 482.936 1270.67 453.491 1258.07C392.227 1231.87 327.146 1218.58 260.058 1218.58Z"/><path fill="url(#paint31_linear_5_236)" d="M962.437 1290.89C916.144 1290.89 871.23 1281.73 828.949 1263.64C788.111 1246.17 751.436 1221.17 719.944 1189.32C688.451 1157.47 663.724 1120.38 646.451 1079.08C628.568 1036.33 619.5 990.91 619.5 944.09C619.5 897.27 628.568 851.854 646.451 809.096C663.724 767.798 688.451 730.709 719.944 698.862C751.436 667.014 788.111 642.008 828.949 624.54C871.23 606.455 916.14 597.285 962.437 597.285C1008.73 597.285 1053.64 606.455 1095.93 624.54C1136.76 642.008 1173.44 667.014 1204.93 698.862C1236.42 730.709 1261.15 767.798 1278.42 809.096C1296.31 851.854 1305.38 897.27 1305.38 944.09C1305.38 990.91 1296.31 1036.33 1278.42 1079.08C1261.15 1120.38 1236.42 1157.47 1204.93 1189.32C1173.44 1221.17 1136.76 1246.17 1095.93 1263.64C1053.64 1281.73 1008.73 1290.89 962.437 1290.89ZM962.437 601.836C916.747 601.836 872.426 610.884 830.704 628.731C790.402 645.971 754.208 670.647 723.128 702.081C692.044 733.516 667.643 770.115 650.595 810.871C632.948 853.064 624 897.885 624 944.09C624 990.295 632.948 1035.12 650.595 1077.31C667.643 1118.07 692.044 1154.67 723.128 1186.1C754.211 1217.53 790.402 1242.21 830.704 1259.45C872.426 1277.3 916.747 1286.34 962.437 1286.34C1008.13 1286.34 1052.45 1277.3 1094.17 1259.45C1134.47 1242.21 1170.67 1217.53 1201.75 1186.1C1232.83 1154.66 1257.23 1118.07 1274.28 1077.31C1291.93 1035.12 1300.88 990.295 1300.88 944.09C1300.88 897.885 1291.93 853.064 1274.28 810.871C1257.23 770.115 1232.83 733.512 1201.75 702.081C1170.66 670.647 1134.47 645.971 1094.17 628.731C1052.45 610.884 1008.13 601.836 962.437 601.836Z"/><path fill="url(#paint32_linear_5_236)" d="M181.875 1294.69C159.236 1294.69 137.955 1285.77 121.946 1269.59C105.938 1253.4 97.125 1231.88 97.125 1208.98C97.125 1186.09 105.941 1164.57 121.946 1148.38C137.955 1132.19 159.236 1123.28 181.875 1123.28C204.514 1123.28 225.795 1132.19 241.804 1148.38C257.813 1164.57 266.625 1186.09 266.625 1208.98C266.625 1231.88 257.809 1253.4 241.804 1269.59C225.795 1285.78 204.514 1294.69 181.875 1294.69ZM181.875 1125.55C159.84 1125.55 139.121 1134.23 123.54 1149.99C107.959 1165.75 99.375 1186.7 99.375 1208.98C99.375 1231.26 107.955 1252.22 123.54 1267.97C139.121 1283.73 159.84 1292.41 181.875 1292.41C203.91 1292.41 224.629 1283.73 240.21 1267.97C255.791 1252.22 264.375 1231.26 264.375 1208.98C264.375 1186.7 255.795 1165.75 240.21 1149.99C224.629 1134.23 203.91 1125.55 181.875 1125.55Z"/><path fill="url(#paint33_linear_5_236)" d="M1026.92 1753.18C990.221 1753.18 960.359 1722.98 960.359 1685.86C960.359 1648.75 990.221 1618.55 1026.92 1618.55C1063.62 1618.55 1093.48 1648.75 1093.48 1685.86C1093.48 1722.98 1063.62 1753.18 1026.92 1753.18ZM1026.92 1620.82C991.458 1620.82 962.609 1650 962.609 1685.86C962.609 1721.73 991.458 1750.9 1026.92 1750.9C1062.39 1750.9 1091.23 1721.73 1091.23 1685.86C1091.23 1650 1062.39 1620.82 1026.92 1620.82Z"/><g opacity=".7"><path fill="#fff" d="M1040.16 1443.32L1029.32 1432.36C1028.65 1431.68 1028.65 1430.59 1029.32 1429.91C1029.99 1429.24 1031.07 1429.24 1031.74 1429.91L1042.58 1440.88C1043.25 1441.55 1043.25 1442.65 1042.58 1443.32C1041.91 1444 1040.83 1444 1040.16 1443.32Z"/><path fill="#fff" d="M1029.32 1443.32C1028.65 1442.65 1028.65 1441.55 1029.32 1440.88L1040.16 1429.91C1040.83 1429.24 1041.91 1429.24 1042.58 1429.91C1043.25 1430.59 1043.25 1431.68 1042.58 1432.36L1031.74 1443.32C1031.07 1444 1029.99 1444 1029.32 1443.32Z"/></g><path fill="url(#paint34_linear_5_236)" d="M108.578 1758.01L149.314 1684.43H151.381L110.644 1758.01H108.578Z"/><path fill="url(#paint35_linear_5_236)" d="M87.2031 1758.01L127.939 1684.43H130.006L89.2694 1758.01H87.2031Z"/><path fill="url(#paint36_linear_5_236)" d="M65.8281 1758.01L106.564 1684.43H108.631L67.8944 1758.01H65.8281Z"/><path fill="url(#paint37_linear_5_236)" d="M44.4531 1758.01L85.1894 1684.43H87.2556L46.5194 1758.01H44.4531Z"/><path fill="url(#paint38_linear_5_236)" d="M23.0781 1758.01L63.8144 1684.43H65.8806L25.1444 1758.01H23.0781Z"/><path fill="url(#paint39_linear_5_236)" d="M1.70312 1758.01L42.4394 1684.43H44.5056L3.76938 1758.01H1.70312Z"/><path fill="url(#paint40_linear_5_236)" d="M-19.6719 1758.01L21.0644 1684.43H23.1306L-17.6056 1758.01H-19.6719Z"/><path fill="url(#paint41_linear_5_236)" d="M-41.0469 1758.01L-0.310627 1684.43H1.75563L-38.9806 1758.01H-41.0469Z"/><g opacity=".7"><path fill="#fff" d="M371.839 1047.01L360.998 1057.97C360.33 1058.64 359.246 1058.64 358.579 1057.97C357.911 1057.29 357.911 1056.2 358.579 1055.52L369.42 1044.56C370.088 1043.88 371.171 1043.88 371.839 1044.56C372.506 1045.23 372.506 1046.33 371.839 1047.01Z"/><path fill="#fff" d="M371.839 1057.97C371.171 1058.64 370.088 1058.64 369.42 1057.97L358.579 1047.01C357.911 1046.33 357.911 1045.23 358.579 1044.56C359.246 1043.88 360.33 1043.88 360.998 1044.56L371.839 1055.52C372.506 1056.2 372.506 1057.29 371.839 1057.97Z"/></g><g opacity=".7"><path fill="#fff" d="M649.358 1687.17H637.095C636.338 1687.17 635.727 1686.55 635.727 1685.79C635.727 1685.02 636.338 1684.4 637.095 1684.4H649.358C650.115 1684.4 650.727 1685.02 650.727 1685.79C650.727 1686.55 650.115 1687.17 649.358 1687.17Z"/><path fill="#fff" d="M643.228 1693.37C642.471 1693.37 641.859 1692.75 641.859 1691.99V1679.59C641.859 1678.82 642.471 1678.2 643.228 1678.2C643.986 1678.2 644.597 1678.82 644.597 1679.59V1691.99C644.597 1692.75 643.986 1693.37 643.228 1693.37Z"/></g><g opacity=".7"><path fill="#fff" d="M760.957 1291.76H753.293C752.82 1291.76 752.438 1291.37 752.438 1290.89C752.438 1290.42 752.82 1290.03 753.293 1290.03H760.957C761.43 1290.03 761.812 1290.42 761.812 1290.89C761.812 1291.37 761.43 1291.76 760.957 1291.76Z"/><path fill="#fff" d="M757.121 1295.64C756.648 1295.64 756.266 1295.25 756.266 1294.77V1287.02C756.266 1286.54 756.648 1286.15 757.121 1286.15C757.593 1286.15 757.976 1286.54 757.976 1287.02V1294.77C757.976 1295.25 757.593 1295.64 757.121 1295.64Z"/></g><g opacity=".7"><path fill="#fff" d="M137.147 1535.35L130.645 1528.77C130.243 1528.37 130.243 1527.71 130.645 1527.31C131.046 1526.9 131.695 1526.9 132.096 1527.31L138.598 1533.88C139 1534.29 139 1534.94 138.598 1535.35C138.197 1535.76 137.548 1535.76 137.147 1535.35Z"/><path fill="#fff" d="M130.645 1535.35C130.243 1534.94 130.243 1534.29 130.645 1533.88L137.147 1527.31C137.548 1526.9 138.197 1526.9 138.598 1527.31C139 1527.71 139 1528.37 138.598 1528.77L132.096 1535.35C131.695 1535.76 131.046 1535.76 130.645 1535.35Z"/></g><g opacity=".7"><path fill="#fff" d="M1400.9 1082.41H1395.38C1395.04 1082.41 1394.77 1082.13 1394.77 1081.79C1394.77 1081.44 1395.04 1081.17 1395.38 1081.17H1400.9C1401.24 1081.17 1401.52 1081.44 1401.52 1081.79C1401.52 1082.13 1401.24 1082.41 1400.9 1082.41Z"/><path fill="#fff" d="M1398.14 1085.2C1397.8 1085.2 1397.52 1084.92 1397.52 1084.58V1078.99C1397.52 1078.65 1397.8 1078.37 1398.14 1078.37C1398.48 1078.37 1398.75 1078.65 1398.75 1078.99V1084.58C1398.75 1084.92 1398.48 1085.2 1398.14 1085.2Z"/></g><path fill="#DF2171" d="M886.867 1619.5C889.456 1619.5 891.555 1617.38 891.555 1614.76C891.555 1612.14 889.456 1610.02 886.867 1610.02C884.278 1610.02 882.18 1612.14 882.18 1614.76C882.18 1617.38 884.278 1619.5 886.867 1619.5Z" opacity=".7"/><path fill="#DF2171" d="M1384.3 1465.72C1386.89 1465.72 1388.99 1463.6 1388.99 1460.98C1388.99 1458.36 1386.89 1456.24 1384.3 1456.24C1381.72 1456.24 1379.62 1458.36 1379.62 1460.98C1379.62 1463.6 1381.72 1465.72 1384.3 1465.72Z" opacity=".7"/><path fill="#fff" d="M1166.06 1724.36C1167.62 1724.36 1168.87 1723.08 1168.87 1721.51C1168.87 1719.94 1167.62 1718.67 1166.06 1718.67C1164.51 1718.67 1163.25 1719.94 1163.25 1721.51C1163.25 1723.08 1164.51 1724.36 1166.06 1724.36Z" opacity=".7"/><path fill="#fff" d="M344.43 1784.84C347.536 1784.84 350.055 1782.29 350.055 1779.15C350.055 1776.01 347.536 1773.46 344.43 1773.46C341.323 1773.46 338.805 1776.01 338.805 1779.15C338.805 1782.29 341.323 1784.84 344.43 1784.84Z" opacity=".7"/><path fill="#fff" d="M330.93 1273.64C333.001 1273.64 334.68 1271.94 334.68 1269.85C334.68 1267.75 333.001 1266.05 330.93 1266.05C328.859 1266.05 327.18 1267.75 327.18 1269.85C327.18 1271.94 328.859 1273.64 330.93 1273.64Z" opacity=".7"/><path fill="#DF2171" d="M693.555 1172.58C695.108 1172.58 696.367 1171.3 696.367 1169.73C696.367 1168.16 695.108 1166.89 693.555 1166.89C692.001 1166.89 690.742 1168.16 690.742 1169.73C690.742 1171.3 692.001 1172.58 693.555 1172.58Z" opacity=".7"/><path fill="#fff" d="M1052.62 1180.92C1055.72 1180.92 1058.24 1178.37 1058.24 1175.23C1058.24 1172.09 1055.72 1169.54 1052.62 1169.54C1049.51 1169.54 1046.99 1172.09 1046.99 1175.23C1046.99 1178.37 1049.51 1180.92 1052.62 1180.92Z" opacity=".7"/><path fill="#DF2171" d="M522.18 1492.64C523.733 1492.64 524.992 1491.37 524.992 1489.8C524.992 1488.23 523.733 1486.96 522.18 1486.96C520.626 1486.96 519.367 1488.23 519.367 1489.8C519.367 1491.37 520.626 1492.64 522.18 1492.64Z" opacity=".7"/><path fill="#DF2171" d="M70.1172 1176.94C72.706 1176.94 74.8047 1174.81 74.8047 1172.2C74.8047 1169.58 72.706 1167.46 70.1172 1167.46C67.5284 1167.46 65.4297 1169.58 65.4297 1172.2C65.4297 1174.81 67.5284 1176.94 70.1172 1176.94Z" opacity=".7"/></g></g><g filter="url(#filter0_f_5_236)"><circle cx="102.5" cy="717.499" r="215.5" fill="#F73F7C" fill-opacity=".4"/></g><g filter="url(#filter1_f_5_236)"><circle cx="1381.5" cy="1128.5" r="107.5" fill="#F73F7C" fill-opacity=".4"/></g><g filter="url(#filter2_f_5_236)"><circle cx="1349.5" cy="637.499" r="225.5" fill="#2945A9" fill-opacity=".4"/></g><g style="mix-blend-mode:exclusion" opacity=".2"><path fill="#fff" fill-opacity=".2" d="M1789.07 1581.29L1338.56 1658.04L1338.68 1661.46L1789.19 1584.71L1789.07 1581.29Z"/><path fill="#fff" fill-opacity=".2" d="M1789.07 1581.29L1338.56 1658.04L1338.68 1661.46L1789.19 1584.71L1789.07 1581.29Z"/><g opacity=".48" style="mix-blend-mode:screen"><path fill="#11137D" d="M1776.82 1630.66L1070.51 1756.3L1220.14 1904.34L1926.46 1778.71C1926.8 1767.55 1776.82 1630.66 1776.82 1630.66Z"/></g><path fill="#fff" fill-opacity=".2" d="M1789.13 1845.39L1368.84 1920.02L1370.3 1933.74L1790.59 1859.12L1789.13 1845.39Z"/><path fill="#fff" fill-opacity=".2" d="M1376.9 1896.31L1202.2 1928.49L1202.85 1934.19L1377.54 1902.01L1376.9 1896.31Z"/><path fill="#fff" fill-opacity=".2" d="M1424.93 1667.22L974.419 1743.96L975.09 1752.04L1425.61 1675.29L1424.93 1667.22Z"/><path fill="#fff" fill-opacity=".2" d="M1424.93 1667.22L974.419 1743.96L975.09 1752.04L1425.61 1675.29L1424.93 1667.22Z"/><path fill="#fff" fill-opacity=".2" d="M1687.22 1904.16L1236.72 1980.91L1236.84 1984.33L1687.34 1907.58L1687.22 1904.16Z"/><path fill="#fff" fill-opacity=".2" d="M1687.22 1904.16L1236.72 1980.91L1236.84 1984.33L1687.34 1907.58L1687.22 1904.16Z"/><path fill="#11137D" d="M1681.82 1527.17L975.497 1652.81L1043.56 1720.15L1749.88 1594.5C1750.23 1583.35 1681.82 1527.17 1681.82 1527.17Z"/><path fill="#11137D" d="M1998.96 1292.71L1196.52 1444.27L1264.58 1511.6L2067.02 1360.05C2067.37 1348.89 1998.96 1292.71 1998.96 1292.71Z"/><path fill="#11137D" d="M1379.63 1758.77L741.517 1838.05L768.459 1900.1L1407.57 1786.42L1379.63 1758.77Z"/><path fill="#11137D" d="M1585.25 1821.45L946.138 1935.14L974.081 1962.78L1613.19 1849.1L1585.25 1821.45Z"/><path fill="#11137D" d="M1995.62 1583.09L1356.52 1696.78L1384.46 1724.42L2023.56 1610.74L1995.62 1583.09Z"/><path fill="#11137D" d="M2033.62 1436.34L1394.52 1550.03L1422.46 1558.55L2061.56 1444.86L2033.62 1436.34Z"/><g opacity=".5" style="mix-blend-mode:overlay"><path fill="#11137D" d="M1068.62 1868.34L423.515 1971.05L457.466 2009.67L1096.56 1895.99L1068.62 1868.34Z"/></g><path fill="#72008F" d="M1837.68 1690.88L1131.37 1816.52L1281 1964.56L1987.32 1838.93C1987.66 1827.77 1837.68 1690.88 1837.68 1690.88Z"/></g><g style="mix-blend-mode:exclusion" opacity=".2"><path fill="#fff" fill-opacity=".2" d="M212.127 1729.52L36.9453 1756.78L37.4259 1762.51L212.607 1735.25L212.127 1729.52Z"/><path fill="#fff" fill-opacity=".2" d="M220.067 1697.29L-230.44 1774.04L-230.317 1777.46L220.189 1700.71L220.067 1697.29Z"/><path fill="#fff" fill-opacity=".2" d="M220.067 1697.29L-230.44 1774.04L-230.317 1777.46L220.189 1700.71L220.067 1697.29Z"/><g opacity=".48" style="mix-blend-mode:screen"><path fill="#11137D" d="M207.823 1746.66L-498.493 1872.3L-348.858 2020.34L357.457 1894.71C357.802 1883.55 207.823 1746.66 207.823 1746.66Z"/></g><path fill="#fff" fill-opacity=".2" d="M220.135 1961.39L-200.156 2036.02L-198.698 2049.74L221.593 1975.12L220.135 1961.39Z"/><path fill="#fff" fill-opacity=".2" d="M118.223 2020.16L-332.284 2096.91L-332.161 2100.33L118.346 2023.58L118.223 2020.16Z"/><path fill="#fff" fill-opacity=".2" d="M118.223 2020.16L-332.284 2096.91L-332.161 2100.33L118.346 2023.58L118.223 2020.16Z"/><path fill="#11137D" d="M112.823 1643.17L-593.502 1768.81L-525.44 1836.15L180.884 1710.5C181.229 1699.35 112.823 1643.17 112.823 1643.17Z"/><path fill="#11137D" d="M429.962 1408.71L-372.478 1560.27L-304.417 1627.6L498.023 1476.05C498.369 1464.89 429.962 1408.71 429.962 1408.71Z"/><path fill="#11137D" d="M16.253 1937.45L-622.861 2051.14L-594.918 2078.78L44.1957 1965.1L16.253 1937.45Z"/><path fill="#11137D" d="M426.62 1699.09L-212.477 1812.78L-184.535 1840.42L454.563 1726.74L426.62 1699.09Z"/><path fill="#11137D" d="M464.62 1552.34L-174.477 1666.03L-146.534 1674.55L492.563 1560.86L464.62 1552.34Z"/><path fill="#11137D" d="M537.167 1803.18L-101.93 1916.86L-73.9877 1944.51L565.109 1830.83L537.167 1803.18Z"/><path fill="#72008F" d="M268.682 1806.88L-437.633 1932.52L-287.999 2080.56L418.316 1954.93C418.661 1943.77 268.682 1806.88 268.682 1806.88Z"/></g><g style="mix-blend-mode:color-dodge" opacity=".3"><path fill="#fff" fill-opacity=".3" d="M142.127 775.524L-33.0548 802.778L-32.5742 808.507L142.607 781.253L142.127 775.524Z"/><path fill="#fff" fill-opacity=".3" d="M150.067 743.291L-300.44 820.038L-300.318 823.456L150.189 746.71L150.067 743.291Z"/><path fill="#fff" fill-opacity=".3" d="M150.067 743.291L-300.44 820.038L-300.318 823.456L150.189 746.71L150.067 743.291Z"/><g opacity=".48" style="mix-blend-mode:screen"><path fill="#2B40CA" fill-opacity=".8" d="M137.822 792.663L-568.493 918.299L-418.858 1066.34L287.457 940.71C287.802 929.554 137.822 792.663 137.822 792.663Z"/></g><path fill="#fff" fill-opacity=".3" d="M150.135 1007.4L-270.156 1082.02L-268.698 1095.74L151.593 1021.12L150.135 1007.4Z"/><path fill="#fff" fill-opacity=".3" d="M48.223 1066.16L-402.284 1142.91L-402.161 1146.33L48.3454 1069.58L48.223 1066.16Z"/><path fill="#fff" fill-opacity=".3" d="M48.223 1066.16L-402.284 1142.91L-402.161 1146.33L48.3454 1069.58L48.223 1066.16Z"/><path fill="#2B40CA" fill-opacity=".8" d="M42.8224 689.165L-663.502 814.809L-595.441 882.148L110.884 756.504C111.229 745.348 42.8224 689.165 42.8224 689.165Z"/><path fill="#2B40CA" fill-opacity=".8" d="M359.962 454.71L-442.479 606.265L-374.417 673.604L428.023 522.049C428.368 510.893 359.962 454.71 359.962 454.71Z"/><path fill="#2B40CA" fill-opacity=".8" d="M356.62 745.093L-282.477 858.776L-254.535 886.422L384.562 772.739L356.62 745.093Z"/><path fill="#2B40CA" fill-opacity=".8" d="M394.62 598.344L-244.477 712.027L-216.534 720.548L422.563 606.865L394.62 598.344Z"/><path fill="#2B40CA" fill-opacity=".8" d="M198.682 852.882L-507.634 978.517L-357.999 1126.56L348.316 1000.93C348.661 989.772 198.682 852.882 198.682 852.882Z"/></g><g style="mix-blend-mode:color-burn" opacity=".2"><path fill="#fff" d="M1314.13 2244.52L1138.94 2271.78L1139.42 2277.51L1314.61 2250.25L1314.13 2244.52Z"/><path fill="#fff" d="M1322.07 2212.29L871.559 2289.04L871.682 2292.46L1322.19 2215.71L1322.07 2212.29Z"/><path fill="#fff" d="M1322.07 2212.29L871.559 2289.04L871.682 2292.46L1322.19 2215.71L1322.07 2212.29Z"/><g opacity=".48" style="mix-blend-mode:screen"><path fill="#F9C900" d="M1309.82 2261.66L603.506 2387.3L753.141 2535.34L1459.46 2409.71C1459.8 2398.55 1309.82 2261.66 1309.82 2261.66Z"/></g><path fill="#fff" d="M1322.13 2476.39L901.843 2551.02L903.301 2564.74L1323.59 2490.12L1322.13 2476.39Z"/><path fill="#fff" d="M909.898 2527.31L735.202 2559.49L735.847 2565.19L910.543 2533.01L909.898 2527.31Z"/><path fill="#fff" d="M957.925 2298.22L507.419 2374.96L508.09 2383.04L958.605 2306.29L957.925 2298.22Z"/><path fill="#fff" d="M957.925 2298.22L507.419 2374.96L508.09 2383.04L958.605 2306.29L957.925 2298.22Z"/><path fill="#fff" d="M1220.22 2535.16L769.715 2611.91L769.838 2615.33L1220.34 2538.58L1220.22 2535.16Z"/><path fill="#fff" d="M1220.22 2535.16L769.715 2611.91L769.838 2615.33L1220.34 2538.58L1220.22 2535.16Z"/><path fill="#F9C900" d="M1214.82 2158.16L508.497 2283.81L576.559 2351.15L1282.88 2225.5C1283.23 2214.35 1214.82 2158.16 1214.82 2158.16Z"/><path fill="#F9C900" d="M1531.96 1923.71L729.521 2075.26L797.582 2142.6L1600.02 1991.05C1600.37 1979.89 1531.96 1923.71 1531.96 1923.71Z"/><path fill="#F9C900" d="M912.631 2389.78L274.517 2469.05L301.459 2531.11L940.573 2417.42L912.631 2389.78Z"/><path fill="#F9C900" d="M1118.25 2452.46L479.138 2566.14L507.081 2593.79L1146.19 2480.1L1118.25 2452.46Z"/><path fill="#F9C900" d="M1528.62 2214.09L889.522 2327.77L917.464 2355.42L1556.56 2241.74L1528.62 2214.09Z"/><path fill="#F9C900" d="M1566.62 2067.34L927.522 2181.03L955.465 2189.55L1594.56 2075.86L1566.62 2067.34Z"/><g opacity=".5" style="mix-blend-mode:overlay"><path fill="#F9C900" d="M601.62 2499.34L-43.4846 2602.05L-9.53444 2640.67L629.563 2526.99L601.62 2499.34Z"/></g><path fill="#F9C900" d="M1639.17 2318.18L1000.07 2431.86L1028.01 2459.51L1667.11 2345.83L1639.17 2318.18Z"/><path fill="#DCBD3A" d="M1370.68 2321.88L664.366 2447.52L814 2595.56L1520.32 2469.93C1520.66 2458.77 1370.68 2321.88 1370.68 2321.88Z"/></g><g style="mix-blend-mode:saturation" opacity=".3"><path fill="#fff" d="M1744.07 383.291L1293.56 460.038L1293.68 463.456L1744.19 386.71L1744.07 383.291Z"/><path fill="#fff" d="M1744.07 383.291L1293.56 460.038L1293.68 463.456L1744.19 386.71L1744.07 383.291Z"/><g opacity=".48" style="mix-blend-mode:screen"><path fill="#F9C900" d="M1731.82 432.663L1025.51 558.298L1175.14 706.345L1881.46 580.709C1881.8 569.554 1731.82 432.663 1731.82 432.663Z"/></g><path fill="#fff" d="M1744.13 647.395L1323.84 722.016L1325.3 735.742L1745.59 661.121L1744.13 647.395Z"/><path fill="#fff" d="M1331.9 698.308L1157.2 730.494L1157.85 736.195L1332.54 704.008L1331.9 698.308Z"/><path fill="#fff" d="M1379.93 469.218L929.419 545.965L930.091 554.043L1380.61 477.288L1379.93 469.218Z"/><path fill="#fff" d="M1379.93 469.218L929.419 545.965L930.091 554.043L1380.61 477.288L1379.93 469.218Z"/><path fill="#fff" d="M1642.22 706.164L1191.72 782.911L1191.84 786.329L1642.35 709.583L1642.22 706.164Z"/><path fill="#fff" d="M1642.22 706.164L1191.72 782.911L1191.84 786.329L1642.35 709.583L1642.22 706.164Z"/><path fill="#F9C900" d="M1636.82 329.165L930.498 454.809L998.559 522.148L1704.88 396.504C1705.23 385.348 1636.82 329.165 1636.82 329.165Z"/><path fill="#F9C900" d="M1953.96 94.7099L1151.52 246.265L1219.58 313.604L2022.02 162.049C2022.37 150.893 1953.96 94.7099 1953.96 94.7099Z"/><path fill="#F9C900" d="M1334.63 560.775L696.518 640.048L723.46 702.105L1362.57 588.422L1334.63 560.775Z"/><path fill="#F9C900" d="M1540.25 623.455L901.139 737.139L929.081 764.785L1568.2 651.101L1540.25 623.455Z"/><path fill="#F9C900" d="M1950.62 385.092L1311.52 498.775L1339.47 526.421L1978.56 412.738L1950.62 385.092Z"/><path fill="#F9C900" d="M1988.62 238.343L1349.52 352.027L1377.47 360.547L2016.56 246.864L1988.62 238.343Z"/><g opacity=".5" style="mix-blend-mode:overlay"><path fill="#F9C900" d="M1023.62 670.344L378.516 773.048L412.466 811.673L1051.56 697.99L1023.62 670.344Z"/></g><path fill="#F9C900" d="M2061.17 489.18L1422.07 602.863L1450.01 630.509L2089.11 516.826L2061.17 489.18Z"/><path fill="#DCBD3A" d="M1792.68 492.882L1086.37 618.517L1236 766.564L1942.32 640.928C1942.66 629.772 1792.68 492.882 1792.68 492.882Z"/></g></g><defs><filter id="filter0_f_5_236" width="919" height="919" x="-357" y="257.999" color-interpolation-filters="sRGB" filterUnits="userSpaceOnUse"><feFlood flood-opacity="0" result="BackgroundImageFix"/><feBlend in="SourceGraphic" in2="BackgroundImageFix" mode="normal" result="shape"/><feGaussianBlur result="effect1_foregroundBlur_5_236" stdDeviation="122"/></filter><filter id="filter1_f_5_236" width="703" height="703" x="1030" y="776.999" color-interpolation-filters="sRGB" filterUnits="userSpaceOnUse"><feFlood flood-opacity="0" result="BackgroundImageFix"/><feBlend in="SourceGraphic" in2="BackgroundImageFix" mode="normal" result="shape"/><feGaussianBlur result="effect1_foregroundBlur_5_236" stdDeviation="122"/></filter><filter id="filter2_f_5_236" width="939" height="939" x="880" y="167.999" color-interpolation-filters="sRGB" filterUnits="userSpaceOnUse"><feFlood flood-opacity="0" result="BackgroundImageFix"/><feBlend in="SourceGraphic" in2="BackgroundImageFix" mode="normal" result="shape"/><feGaussianBlur result="effect1_foregroundBlur_5_236" stdDeviation="122"/></filter><linearGradient id="paint0_linear_5_236" x1="741.03" x2="-45.054" y1="3880.95" y2="3687.44" gradientUnits="userSpaceOnUse"><stop stop-color="#005B7F"/><stop offset="1" stop-color="#00233F"/></linearGradient><linearGradient id="paint1_linear_5_236" x1="962.438" x2="962.438" y1="3331.42" y2="3083.39" gradientUnits="userSpaceOnUse"><stop stop-color="#005B7F"/><stop offset="1" stop-color="#00233F"/></linearGradient><linearGradient id="paint2_linear_5_236" x1="229.807" x2="146.702" y1="3178.61" y2="3295.76" gradientUnits="userSpaceOnUse"><stop stop-color="#005B7F"/><stop offset="1" stop-color="#00233F"/></linearGradient><linearGradient id="paint3_linear_5_236" x1="1388.52" x2="1420.24" y1="546.642" y2="749.97" gradientUnits="userSpaceOnUse"><stop stop-color="#005B7F"/><stop offset="1" stop-color="#00233F"/></linearGradient><linearGradient id="paint4_linear_5_236" x1="741.03" x2="-45.054" y1="822.849" y2="629.336" gradientUnits="userSpaceOnUse"><stop stop-color="#005B7F"/><stop offset="1" stop-color="#00233F"/></linearGradient><linearGradient id="paint5_linear_5_236" x1="962.438" x2="962.438" y1="273.321" y2="25.287" gradientUnits="userSpaceOnUse"><stop stop-color="#005B7F"/><stop offset="1" stop-color="#00233F"/></linearGradient><linearGradient id="paint6_linear_5_236" x1="229.807" x2="146.702" y1="120.511" y2="237.662" gradientUnits="userSpaceOnUse"><stop stop-color="#005B7F"/><stop offset="1" stop-color="#00233F"/></linearGradient><linearGradient id="paint7_linear_5_236" x1="984.438" x2="1055.05" y1="613.865" y2="699.406" gradientUnits="userSpaceOnUse"><stop stop-color="#005B7F"/><stop offset="1" stop-color="#00233F"/></linearGradient><linearGradient id="paint8_linear_5_236" x1="151.377" x2="108.574" y1="701.854" y2="701.854" gradientUnits="userSpaceOnUse"><stop stop-color="#fff"/><stop offset="1" stop-color="#00233F"/></linearGradient><linearGradient id="paint9_linear_5_236" x1="130.002" x2="87.199" y1="1825.79" y2="1825.79" gradientUnits="userSpaceOnUse"><stop stop-color="#fff"/><stop offset="1" stop-color="#00233F"/></linearGradient><linearGradient id="paint10_linear_5_236" x1="108.627" x2="65.824" y1="1825.79" y2="1825.79" gradientUnits="userSpaceOnUse"><stop stop-color="#fff"/><stop offset="1" stop-color="#00233F"/></linearGradient><linearGradient id="paint11_linear_5_236" x1="87.252" x2="44.449" y1="1825.79" y2="1825.79" gradientUnits="userSpaceOnUse"><stop stop-color="#fff"/><stop offset="1" stop-color="#00233F"/></linearGradient><linearGradient id="paint12_linear_5_236" x1="65.877" x2="23.074" y1="1825.79" y2="1825.79" gradientUnits="userSpaceOnUse"><stop stop-color="#fff"/><stop offset="1" stop-color="#00233F"/></linearGradient><linearGradient id="paint13_linear_5_236" x1="44.502" x2="1.699" y1="1825.79" y2="1825.79" gradientUnits="userSpaceOnUse"><stop stop-color="#fff"/><stop offset="1" stop-color="#00233F"/></linearGradient><linearGradient id="paint14_linear_5_236" x1="23.127" x2="-19.676" y1="1825.79" y2="1825.79" gradientUnits="userSpaceOnUse"><stop stop-color="#fff"/><stop offset="1" stop-color="#00233F"/></linearGradient><linearGradient id="paint15_linear_5_236" x1="1.752" x2="-41.051" y1="1825.79" y2="1825.79" gradientUnits="userSpaceOnUse"><stop stop-color="#fff"/><stop offset="1" stop-color="#00233F"/></linearGradient><linearGradient id="paint16_linear_5_236" x1="1388.52" x2="1420.24" y1="2585.38" y2="2788.7" gradientUnits="userSpaceOnUse"><stop stop-color="#005B7F"/><stop offset="1" stop-color="#00233F"/></linearGradient><linearGradient id="paint17_linear_5_236" x1="741.03" x2="-45.054" y1="2861.58" y2="2668.07" gradientUnits="userSpaceOnUse"><stop stop-color="#005B7F"/><stop offset="1" stop-color="#00233F"/></linearGradient><linearGradient id="paint18_linear_5_236" x1="962.438" x2="962.438" y1="2312.06" y2="2064.02" gradientUnits="userSpaceOnUse"><stop stop-color="#005B7F"/><stop offset="1" stop-color="#00233F"/></linearGradient><linearGradient id="paint19_linear_5_236" x1="229.807" x2="146.702" y1="2159.25" y2="2276.4" gradientUnits="userSpaceOnUse"><stop stop-color="#005B7F"/><stop offset="1" stop-color="#00233F"/></linearGradient><linearGradient id="paint20_linear_5_236" x1="984.438" x2="1055.05" y1="2652.6" y2="2738.14" gradientUnits="userSpaceOnUse"><stop stop-color="#005B7F"/><stop offset="1" stop-color="#00233F"/></linearGradient><linearGradient id="paint21_linear_5_236" x1="151.377" x2="108.574" y1="2740.59" y2="2740.59" gradientUnits="userSpaceOnUse"><stop stop-color="#fff"/><stop offset="1" stop-color="#00233F"/></linearGradient><linearGradient id="paint22_linear_5_236" x1="130.002" x2="87.199" y1="3864.52" y2="3864.52" gradientUnits="userSpaceOnUse"><stop stop-color="#fff"/><stop offset="1" stop-color="#00233F"/></linearGradient><linearGradient id="paint23_linear_5_236" x1="108.627" x2="65.824" y1="3864.52" y2="3864.52" gradientUnits="userSpaceOnUse"><stop stop-color="#fff"/><stop offset="1" stop-color="#00233F"/></linearGradient><linearGradient id="paint24_linear_5_236" x1="87.252" x2="44.449" y1="3864.52" y2="3864.52" gradientUnits="userSpaceOnUse"><stop stop-color="#fff"/><stop offset="1" stop-color="#00233F"/></linearGradient><linearGradient id="paint25_linear_5_236" x1="65.877" x2="23.074" y1="3864.52" y2="3864.52" gradientUnits="userSpaceOnUse"><stop stop-color="#fff"/><stop offset="1" stop-color="#00233F"/></linearGradient><linearGradient id="paint26_linear_5_236" x1="44.502" x2="1.699" y1="3864.52" y2="3864.52" gradientUnits="userSpaceOnUse"><stop stop-color="#fff"/><stop offset="1" stop-color="#00233F"/></linearGradient><linearGradient id="paint27_linear_5_236" x1="23.127" x2="-19.676" y1="3864.52" y2="3864.52" gradientUnits="userSpaceOnUse"><stop stop-color="#fff"/><stop offset="1" stop-color="#00233F"/></linearGradient><linearGradient id="paint28_linear_5_236" x1="1.752" x2="-41.051" y1="3864.52" y2="3864.52" gradientUnits="userSpaceOnUse"><stop stop-color="#fff"/><stop offset="1" stop-color="#00233F"/></linearGradient><linearGradient id="paint29_linear_5_236" x1="1388.52" x2="1420.24" y1="1566.01" y2="1769.34" gradientUnits="userSpaceOnUse"><stop stop-color="#005B7F"/><stop offset="1" stop-color="#00233F"/></linearGradient><linearGradient id="paint30_linear_5_236" x1="741.03" x2="-45.054" y1="1842.22" y2="1648.7" gradientUnits="userSpaceOnUse"><stop stop-color="#005B7F"/><stop offset="1" stop-color="#00233F"/></linearGradient><linearGradient id="paint31_linear_5_236" x1="962.438" x2="962.438" y1="1292.69" y2="1044.65" gradientUnits="userSpaceOnUse"><stop stop-color="#005B7F"/><stop offset="1" stop-color="#00233F"/></linearGradient><linearGradient id="paint32_linear_5_236" x1="229.807" x2="146.702" y1="1139.88" y2="1257.03" gradientUnits="userSpaceOnUse"><stop stop-color="#005B7F"/><stop offset="1" stop-color="#00233F"/></linearGradient><linearGradient id="paint33_linear_5_236" x1="984.438" x2="1055.05" y1="1633.23" y2="1718.77" gradientUnits="userSpaceOnUse"><stop stop-color="#005B7F"/><stop offset="1" stop-color="#00233F"/></linearGradient><linearGradient id="paint34_linear_5_236" x1="151.377" x2="108.574" y1="1721.22" y2="1721.22" gradientUnits="userSpaceOnUse"><stop stop-color="#fff"/><stop offset="1" stop-color="#00233F"/></linearGradient><linearGradient id="paint35_linear_5_236" x1="130.002" x2="87.199" y1="2845.16" y2="2845.16" gradientUnits="userSpaceOnUse"><stop stop-color="#fff"/><stop offset="1" stop-color="#00233F"/></linearGradient><linearGradient id="paint36_linear_5_236" x1="108.627" x2="65.824" y1="2845.16" y2="2845.16" gradientUnits="userSpaceOnUse"><stop stop-color="#fff"/><stop offset="1" stop-color="#00233F"/></linearGradient><linearGradient id="paint37_linear_5_236" x1="87.252" x2="44.449" y1="2845.16" y2="2845.16" gradientUnits="userSpaceOnUse"><stop stop-color="#fff"/><stop offset="1" stop-color="#00233F"/></linearGradient><linearGradient id="paint38_linear_5_236" x1="65.877" x2="23.074" y1="2845.16" y2="2845.16" gradientUnits="userSpaceOnUse"><stop stop-color="#fff"/><stop offset="1" stop-color="#00233F"/></linearGradient><linearGradient id="paint39_linear_5_236" x1="44.502" x2="1.699" y1="2845.16" y2="2845.16" gradientUnits="userSpaceOnUse"><stop stop-color="#fff"/><stop offset="1" stop-color="#00233F"/></linearGradient><linearGradient id="paint40_linear_5_236" x1="23.127" x2="-19.676" y1="2845.16" y2="2845.16" gradientUnits="userSpaceOnUse"><stop stop-color="#fff"/><stop offset="1" stop-color="#00233F"/></linearGradient><linearGradient id="paint41_linear_5_236" x1="1.752" x2="-41.051" y1="2845.16" y2="2845.16" gradientUnits="userSpaceOnUse"><stop stop-color="#fff"/><stop offset="1" stop-color="#00233F"/></linearGradient><clipPath id="clip0_5_236"><rect width="3000" height="3333" fill="#fff" transform="translate(-780)"/></clipPath></defs></svg>